<svg xmlns="http://www.w3.org/2000/svg" xmlns:xlink="http://www.w3.org/1999/xlink" width="640" zoomAndPan="magnify" viewBox="0 0 480 249.749984" height="333" preserveAspectRatio="xMidYMid meet" version="1.0"><defs><g/></defs><g fill="#ff00ff" fill-opacity="1"><g transform="translate(12.709436, 118.601731)"><g><path d="M 48.894531 0 L 48.894531 -57.425781 L 34.863281 -57.425781 L 34.863281 -35.765625 L 18.128906 -35.765625 L 18.128906 -57.425781 L 4.101562 -57.425781 L 4.101562 0 L 18.128906 0 L 18.128906 -22.230469 L 34.863281 -22.230469 L 34.863281 0 Z M 48.894531 0 "/></g></g></g><g fill="#ff00ff" fill-opacity="1"><g transform="translate(66.517964, 118.601731)"><g><path d="M 22.640625 -45.117188 C 8.203125 -45.117188 1.148438 -34.945312 1.148438 -22.804688 C 1.148438 -10.582031 8.449219 0.574219 22.476562 0.574219 C 26.742188 0.574219 31.089844 -0.65625 34.125 -4.429688 L 34.125 0 L 47.007812 0 L 47.007812 -44.378906 L 34.125 -44.378906 L 34.125 -39.785156 C 31.253906 -43.476562 26.988281 -45.117188 22.640625 -45.117188 Z M 24.035156 -11.8125 C 17.472656 -11.8125 14.109375 -17.144531 14.109375 -22.476562 C 14.109375 -27.890625 17.390625 -33.222656 24.035156 -33.222656 C 29.613281 -33.222656 34.125 -28.382812 34.125 -22.476562 C 34.125 -16.570312 29.613281 -11.8125 24.035156 -11.8125 Z M 24.035156 -11.8125 "/></g></g></g><g fill="#ff00ff" fill-opacity="1"><g transform="translate(119.260155, 118.601731)"><g><path d="M 45.777344 -18.867188 L 32.976562 -18.867188 C 31.5 -13.945312 27.480469 -11.648438 23.542969 -11.648438 C 18.621094 -11.648438 13.699219 -15.257812 13.699219 -22.230469 C 13.699219 -29.203125 18.621094 -32.8125 23.542969 -32.8125 C 27.480469 -32.8125 31.5 -30.433594 32.976562 -25.511719 L 45.777344 -25.511719 C 44.050781 -38.554688 33.796875 -44.953125 23.542969 -44.953125 C 12.304688 -44.953125 1.066406 -37.242188 1.066406 -22.230469 C 1.066406 -7.21875 12.304688 0.492188 23.542969 0.492188 C 33.796875 0.492188 44.050781 -5.90625 45.777344 -18.867188 Z M 45.777344 -18.867188 "/></g></g></g><g fill="#ff00ff" fill-opacity="1"><g transform="translate(169.623614, 118.601731)"><g><path d="M 26.660156 -22.3125 L 41.671875 -43.722656 L 41.671875 -44.378906 L 27.5625 -44.378906 L 15.339844 -26.90625 L 15.339844 -57.425781 L 2.460938 -57.425781 L 2.460938 0 L 15.339844 0 L 15.339844 -17.308594 L 28.054688 0 L 43.148438 0 L 43.148438 -0.574219 Z M 26.660156 -22.3125 "/></g></g></g><g fill="#ff00ff" fill-opacity="1"><g transform="translate(215.475692, 118.601731)"><g><path d="M 46.925781 -22.3125 C 46.925781 -37.488281 35.4375 -45.035156 24.035156 -45.035156 C 12.46875 -45.035156 1.066406 -37.488281 1.066406 -22.3125 C 1.066406 -7.136719 12.46875 0.492188 23.953125 0.492188 C 33.140625 0.492188 42.246094 -4.347656 45.613281 -14.027344 L 31.582031 -14.027344 C 29.695312 -11.976562 26.988281 -10.992188 24.117188 -10.992188 C 20.179688 -11.074219 16.160156 -13.125 14.601562 -17.226562 L 46.433594 -17.226562 C 46.761719 -18.867188 46.925781 -20.507812 46.925781 -22.3125 Z M 32.8125 -27.316406 L 15.09375 -27.316406 C 16.40625 -31.664062 19.933594 -33.796875 23.789062 -33.796875 C 27.972656 -33.796875 31.582031 -31.746094 32.8125 -27.316406 Z M 32.8125 -27.316406 "/></g></g></g><g fill="#ff00ff" fill-opacity="1"><g transform="translate(267.971811, 118.601731)"><g><path d="M 14.601562 -41.425781 L 14.109375 -44.378906 L 2.460938 -44.378906 L 2.460938 0 L 15.339844 0 L 15.339844 -24.609375 C 15.339844 -30.597656 20.097656 -33.058594 24.773438 -33.140625 C 26.25 -33.140625 27.808594 -32.894531 29.121094 -32.484375 L 29.285156 -44.625 C 27.5625 -45.035156 25.839844 -45.28125 24.28125 -45.28125 C 20.671875 -45.28125 17.472656 -44.132812 14.601562 -41.425781 Z M 14.601562 -41.425781 "/></g></g></g><g fill="#ff00ff" fill-opacity="1"><g transform="translate(301.60213, 118.601731)"><g><path d="M 59.066406 0.328125 L 77.6875 -55.703125 L 77.6875 -57.425781 L 63.660156 -57.425781 L 52.667969 -24.199219 L 45.53125 -44.296875 L 33.632812 -44.296875 L 26.414062 -24.199219 L 15.421875 -57.425781 L 1.394531 -57.425781 L 1.394531 -55.703125 L 20.015625 0.328125 L 32.402344 0.328125 L 39.457031 -19.605469 L 46.679688 0.328125 Z M 59.066406 0.328125 "/></g></g></g><g fill="#ff00ff" fill-opacity="1"><g transform="translate(381.658705, 118.601731)"><g><path d="M 22.640625 -45.117188 C 8.203125 -45.117188 1.148438 -34.945312 1.148438 -22.804688 C 1.148438 -10.582031 8.449219 0.574219 22.476562 0.574219 C 26.742188 0.574219 31.089844 -0.65625 34.125 -4.429688 L 34.125 0 L 47.007812 0 L 47.007812 -44.378906 L 34.125 -44.378906 L 34.125 -39.785156 C 31.253906 -43.476562 26.988281 -45.117188 22.640625 -45.117188 Z M 24.035156 -11.8125 C 17.472656 -11.8125 14.109375 -17.144531 14.109375 -22.476562 C 14.109375 -27.890625 17.390625 -33.222656 24.035156 -33.222656 C 29.613281 -33.222656 34.125 -28.382812 34.125 -22.476562 C 34.125 -16.570312 29.613281 -11.8125 24.035156 -11.8125 Z M 24.035156 -11.8125 "/></g></g></g><g fill="#ff00ff" fill-opacity="1"><g transform="translate(434.400896, 118.601731)"><g><path d="M 14.601562 -41.425781 L 14.109375 -44.378906 L 2.460938 -44.378906 L 2.460938 0 L 15.339844 0 L 15.339844 -24.609375 C 15.339844 -30.597656 20.097656 -33.058594 24.773438 -33.140625 C 26.25 -33.140625 27.808594 -32.894531 29.121094 -32.484375 L 29.285156 -44.625 C 27.5625 -45.035156 25.839844 -45.28125 24.28125 -45.28125 C 20.671875 -45.28125 17.472656 -44.132812 14.601562 -41.425781 Z M 14.601562 -41.425781 "/></g></g></g><g fill="#00ffff" fill-opacity="1"><g transform="translate(11.961549, 122.843208)"><g><path d="M 48.894531 0 L 48.894531 -57.425781 L 34.863281 -57.425781 L 34.863281 -35.765625 L 18.128906 -35.765625 L 18.128906 -57.425781 L 4.101562 -57.425781 L 4.101562 0 L 18.128906 0 L 18.128906 -22.230469 L 34.863281 -22.230469 L 34.863281 0 Z M 48.894531 0 "/></g></g></g><g fill="#00ffff" fill-opacity="1"><g transform="translate(65.770077, 122.843208)"><g><path d="M 22.640625 -45.117188 C 8.203125 -45.117188 1.148438 -34.945312 1.148438 -22.804688 C 1.148438 -10.582031 8.449219 0.574219 22.476562 0.574219 C 26.742188 0.574219 31.089844 -0.65625 34.125 -4.429688 L 34.125 0 L 47.007812 0 L 47.007812 -44.378906 L 34.125 -44.378906 L 34.125 -39.785156 C 31.253906 -43.476562 26.988281 -45.117188 22.640625 -45.117188 Z M 24.035156 -11.8125 C 17.472656 -11.8125 14.109375 -17.144531 14.109375 -22.476562 C 14.109375 -27.890625 17.390625 -33.222656 24.035156 -33.222656 C 29.613281 -33.222656 34.125 -28.382812 34.125 -22.476562 C 34.125 -16.570312 29.613281 -11.8125 24.035156 -11.8125 Z M 24.035156 -11.8125 "/></g></g></g><g fill="#00ffff" fill-opacity="1"><g transform="translate(118.512268, 122.843208)"><g><path d="M 45.777344 -18.867188 L 32.976562 -18.867188 C 31.5 -13.945312 27.480469 -11.648438 23.542969 -11.648438 C 18.621094 -11.648438 13.699219 -15.257812 13.699219 -22.230469 C 13.699219 -29.203125 18.621094 -32.8125 23.542969 -32.8125 C 27.480469 -32.8125 31.5 -30.433594 32.976562 -25.511719 L 45.777344 -25.511719 C 44.050781 -38.554688 33.796875 -44.953125 23.542969 -44.953125 C 12.304688 -44.953125 1.066406 -37.242188 1.066406 -22.230469 C 1.066406 -7.21875 12.304688 0.492188 23.542969 0.492188 C 33.796875 0.492188 44.050781 -5.90625 45.777344 -18.867188 Z M 45.777344 -18.867188 "/></g></g></g><g fill="#00ffff" fill-opacity="1"><g transform="translate(168.875727, 122.843208)"><g><path d="M 26.660156 -22.3125 L 41.671875 -43.722656 L 41.671875 -44.378906 L 27.5625 -44.378906 L 15.339844 -26.90625 L 15.339844 -57.425781 L 2.460938 -57.425781 L 2.460938 0 L 15.339844 0 L 15.339844 -17.308594 L 28.054688 0 L 43.148438 0 L 43.148438 -0.574219 Z M 26.660156 -22.3125 "/></g></g></g><g fill="#00ffff" fill-opacity="1"><g transform="translate(214.727805, 122.843208)"><g><path d="M 46.925781 -22.3125 C 46.925781 -37.488281 35.4375 -45.035156 24.035156 -45.035156 C 12.46875 -45.035156 1.066406 -37.488281 1.066406 -22.3125 C 1.066406 -7.136719 12.46875 0.492188 23.953125 0.492188 C 33.140625 0.492188 42.246094 -4.347656 45.613281 -14.027344 L 31.582031 -14.027344 C 29.695312 -11.976562 26.988281 -10.992188 24.117188 -10.992188 C 20.179688 -11.074219 16.160156 -13.125 14.601562 -17.226562 L 46.433594 -17.226562 C 46.761719 -18.867188 46.925781 -20.507812 46.925781 -22.3125 Z M 32.8125 -27.316406 L 15.09375 -27.316406 C 16.40625 -31.664062 19.933594 -33.796875 23.789062 -33.796875 C 27.972656 -33.796875 31.582031 -31.746094 32.8125 -27.316406 Z M 32.8125 -27.316406 "/></g></g></g><g fill="#00ffff" fill-opacity="1"><g transform="translate(267.223924, 122.843208)"><g><path d="M 14.601562 -41.425781 L 14.109375 -44.378906 L 2.460938 -44.378906 L 2.460938 0 L 15.339844 0 L 15.339844 -24.609375 C 15.339844 -30.597656 20.097656 -33.058594 24.773438 -33.140625 C 26.25 -33.140625 27.808594 -32.894531 29.121094 -32.484375 L 29.285156 -44.625 C 27.5625 -45.035156 25.839844 -45.28125 24.28125 -45.28125 C 20.671875 -45.28125 17.472656 -44.132812 14.601562 -41.425781 Z M 14.601562 -41.425781 "/></g></g></g><g fill="#00ffff" fill-opacity="1"><g transform="translate(300.854243, 122.843208)"><g><path d="M 59.066406 0.328125 L 77.6875 -55.703125 L 77.6875 -57.425781 L 63.660156 -57.425781 L 52.667969 -24.199219 L 45.53125 -44.296875 L 33.632812 -44.296875 L 26.414062 -24.199219 L 15.421875 -57.425781 L 1.394531 -57.425781 L 1.394531 -55.703125 L 20.015625 0.328125 L 32.402344 0.328125 L 39.457031 -19.605469 L 46.679688 0.328125 Z M 59.066406 0.328125 "/></g></g></g><g fill="#00ffff" fill-opacity="1"><g transform="translate(380.910818, 122.843208)"><g><path d="M 22.640625 -45.117188 C 8.203125 -45.117188 1.148438 -34.945312 1.148438 -22.804688 C 1.148438 -10.582031 8.449219 0.574219 22.476562 0.574219 C 26.742188 0.574219 31.089844 -0.65625 34.125 -4.429688 L 34.125 0 L 47.007812 0 L 47.007812 -44.378906 L 34.125 -44.378906 L 34.125 -39.785156 C 31.253906 -43.476562 26.988281 -45.117188 22.640625 -45.117188 Z M 24.035156 -11.8125 C 17.472656 -11.8125 14.109375 -17.144531 14.109375 -22.476562 C 14.109375 -27.890625 17.390625 -33.222656 24.035156 -33.222656 C 29.613281 -33.222656 34.125 -28.382812 34.125 -22.476562 C 34.125 -16.570312 29.613281 -11.8125 24.035156 -11.8125 Z M 24.035156 -11.8125 "/></g></g></g><g fill="#00ffff" fill-opacity="1"><g transform="translate(433.653009, 122.843208)"><g><path d="M 14.601562 -41.425781 L 14.109375 -44.378906 L 2.460938 -44.378906 L 2.460938 0 L 15.339844 0 L 15.339844 -24.609375 C 15.339844 -30.597656 20.097656 -33.058594 24.773438 -33.140625 C 26.25 -33.140625 27.808594 -32.894531 29.121094 -32.484375 L 29.285156 -44.625 C 27.5625 -45.035156 25.839844 -45.28125 24.28125 -45.28125 C 20.671875 -45.28125 17.472656 -44.132812 14.601562 -41.425781 Z M 14.601562 -41.425781 "/></g></g></g><g fill="#2cffff" fill-opacity="1"><g transform="translate(12.335492, 120.722471)"><g><path d="M 48.894531 0 L 48.894531 -57.425781 L 34.863281 -57.425781 L 34.863281 -35.765625 L 18.128906 -35.765625 L 18.128906 -57.425781 L 4.101562 -57.425781 L 4.101562 0 L 18.128906 0 L 18.128906 -22.230469 L 34.863281 -22.230469 L 34.863281 0 Z M 48.894531 0 "/></g></g></g><g fill="#2cffff" fill-opacity="1"><g transform="translate(66.14402, 120.722471)"><g><path d="M 22.640625 -45.117188 C 8.203125 -45.117188 1.148438 -34.945312 1.148438 -22.804688 C 1.148438 -10.582031 8.449219 0.574219 22.476562 0.574219 C 26.742188 0.574219 31.089844 -0.65625 34.125 -4.429688 L 34.125 0 L 47.007812 0 L 47.007812 -44.378906 L 34.125 -44.378906 L 34.125 -39.785156 C 31.253906 -43.476562 26.988281 -45.117188 22.640625 -45.117188 Z M 24.035156 -11.8125 C 17.472656 -11.8125 14.109375 -17.144531 14.109375 -22.476562 C 14.109375 -27.890625 17.390625 -33.222656 24.035156 -33.222656 C 29.613281 -33.222656 34.125 -28.382812 34.125 -22.476562 C 34.125 -16.570312 29.613281 -11.8125 24.035156 -11.8125 Z M 24.035156 -11.8125 "/></g></g></g><g fill="#2cffff" fill-opacity="1"><g transform="translate(118.886212, 120.722471)"><g><path d="M 45.777344 -18.867188 L 32.976562 -18.867188 C 31.5 -13.945312 27.480469 -11.648438 23.542969 -11.648438 C 18.621094 -11.648438 13.699219 -15.257812 13.699219 -22.230469 C 13.699219 -29.203125 18.621094 -32.8125 23.542969 -32.8125 C 27.480469 -32.8125 31.5 -30.433594 32.976562 -25.511719 L 45.777344 -25.511719 C 44.050781 -38.554688 33.796875 -44.953125 23.542969 -44.953125 C 12.304688 -44.953125 1.066406 -37.242188 1.066406 -22.230469 C 1.066406 -7.21875 12.304688 0.492188 23.542969 0.492188 C 33.796875 0.492188 44.050781 -5.90625 45.777344 -18.867188 Z M 45.777344 -18.867188 "/></g></g></g><g fill="#2cffff" fill-opacity="1"><g transform="translate(169.24967, 120.722471)"><g><path d="M 26.660156 -22.3125 L 41.671875 -43.722656 L 41.671875 -44.378906 L 27.5625 -44.378906 L 15.339844 -26.90625 L 15.339844 -57.425781 L 2.460938 -57.425781 L 2.460938 0 L 15.339844 0 L 15.339844 -17.308594 L 28.054688 0 L 43.148438 0 L 43.148438 -0.574219 Z M 26.660156 -22.3125 "/></g></g></g><g fill="#2cffff" fill-opacity="1"><g transform="translate(215.101748, 120.722471)"><g><path d="M 46.925781 -22.3125 C 46.925781 -37.488281 35.4375 -45.035156 24.035156 -45.035156 C 12.46875 -45.035156 1.066406 -37.488281 1.066406 -22.3125 C 1.066406 -7.136719 12.46875 0.492188 23.953125 0.492188 C 33.140625 0.492188 42.246094 -4.347656 45.613281 -14.027344 L 31.582031 -14.027344 C 29.695312 -11.976562 26.988281 -10.992188 24.117188 -10.992188 C 20.179688 -11.074219 16.160156 -13.125 14.601562 -17.226562 L 46.433594 -17.226562 C 46.761719 -18.867188 46.925781 -20.507812 46.925781 -22.3125 Z M 32.8125 -27.316406 L 15.09375 -27.316406 C 16.40625 -31.664062 19.933594 -33.796875 23.789062 -33.796875 C 27.972656 -33.796875 31.582031 -31.746094 32.8125 -27.316406 Z M 32.8125 -27.316406 "/></g></g></g><g fill="#2cffff" fill-opacity="1"><g transform="translate(267.597867, 120.722471)"><g><path d="M 14.601562 -41.425781 L 14.109375 -44.378906 L 2.460938 -44.378906 L 2.460938 0 L 15.339844 0 L 15.339844 -24.609375 C 15.339844 -30.597656 20.097656 -33.058594 24.773438 -33.140625 C 26.25 -33.140625 27.808594 -32.894531 29.121094 -32.484375 L 29.285156 -44.625 C 27.5625 -45.035156 25.839844 -45.28125 24.28125 -45.28125 C 20.671875 -45.28125 17.472656 -44.132812 14.601562 -41.425781 Z M 14.601562 -41.425781 "/></g></g></g><g fill="#2cffff" fill-opacity="1"><g transform="translate(301.228186, 120.722471)"><g><path d="M 59.066406 0.328125 L 77.6875 -55.703125 L 77.6875 -57.425781 L 63.660156 -57.425781 L 52.667969 -24.199219 L 45.53125 -44.296875 L 33.632812 -44.296875 L 26.414062 -24.199219 L 15.421875 -57.425781 L 1.394531 -57.425781 L 1.394531 -55.703125 L 20.015625 0.328125 L 32.402344 0.328125 L 39.457031 -19.605469 L 46.679688 0.328125 Z M 59.066406 0.328125 "/></g></g></g><g fill="#2cffff" fill-opacity="1"><g transform="translate(381.284761, 120.722471)"><g><path d="M 22.640625 -45.117188 C 8.203125 -45.117188 1.148438 -34.945312 1.148438 -22.804688 C 1.148438 -10.582031 8.449219 0.574219 22.476562 0.574219 C 26.742188 0.574219 31.089844 -0.65625 34.125 -4.429688 L 34.125 0 L 47.007812 0 L 47.007812 -44.378906 L 34.125 -44.378906 L 34.125 -39.785156 C 31.253906 -43.476562 26.988281 -45.117188 22.640625 -45.117188 Z M 24.035156 -11.8125 C 17.472656 -11.8125 14.109375 -17.144531 14.109375 -22.476562 C 14.109375 -27.890625 17.390625 -33.222656 24.035156 -33.222656 C 29.613281 -33.222656 34.125 -28.382812 34.125 -22.476562 C 34.125 -16.570312 29.613281 -11.8125 24.035156 -11.8125 Z M 24.035156 -11.8125 "/></g></g></g><g fill="#2cffff" fill-opacity="1"><g transform="translate(434.026953, 120.722471)"><g><path d="M 14.601562 -41.425781 L 14.109375 -44.378906 L 2.460938 -44.378906 L 2.460938 0 L 15.339844 0 L 15.339844 -24.609375 C 15.339844 -30.597656 20.097656 -33.058594 24.773438 -33.140625 C 26.25 -33.140625 27.808594 -32.894531 29.121094 -32.484375 L 29.285156 -44.625 C 27.5625 -45.035156 25.839844 -45.28125 24.28125 -45.28125 C 20.671875 -45.28125 17.472656 -44.132812 14.601562 -41.425781 Z M 14.601562 -41.425781 "/></g></g></g><g fill="#ff00ff" fill-opacity="1"><g transform="translate(170.617718, 183.849341)"><g/></g></g><g fill="#00ffff" fill-opacity="1"><g transform="translate(169.869831, 188.090817)"><g/></g></g><g fill="#2cffff" fill-opacity="1"><g transform="translate(170.243774, 185.970081)"><g/></g></g><g fill="#ff00ff" fill-opacity="1"><g transform="translate(191.196387, 183.849341)"><g><path d="M 12.386719 -19.03125 L -0.328125 -19.03125 C -0.328125 -8.53125 5.824219 0.902344 19.769531 0.902344 C 34.453125 0.902344 41.835938 -8.53125 41.835938 -17.472656 C 41.835938 -22.230469 40.113281 -26.90625 34.535156 -29.777344 C 38.882812 -31.992188 40.113281 -36.585938 40.113281 -40.277344 C 40.113281 -52.09375 30.269531 -58.164062 20.425781 -58.164062 C 10.253906 -58.164062 0.164062 -51.929688 0.164062 -39.046875 L 12.304688 -39.046875 C 12.304688 -43.148438 15.914062 -45.035156 19.523438 -45.035156 C 23.050781 -45.035156 26.496094 -43.3125 26.496094 -39.867188 C 26.496094 -37.652344 24.691406 -35.273438 22.066406 -35.273438 L 13.535156 -35.273438 L 13.535156 -23.378906 L 22.066406 -23.378906 C 26.414062 -23.378906 28.136719 -20.261719 28.136719 -17.964844 C 28.136719 -14.4375 24.117188 -12.386719 20.097656 -12.386719 C 16.242188 -12.386719 12.386719 -14.355469 12.386719 -19.03125 Z M 12.386719 -19.03125 "/></g></g></g><g fill="#ff00ff" fill-opacity="1"><g transform="translate(238.196821, 183.849341)"><g><path d="M 7.054688 -14.355469 C 2.953125 -14.355469 -0.328125 -11.402344 -0.328125 -7.054688 C -0.328125 -3.445312 2.953125 0.246094 7.054688 0.246094 C 11.484375 0.246094 14.683594 -3.445312 14.683594 -7.054688 C 14.683594 -11.402344 11.484375 -14.355469 7.054688 -14.355469 Z M 7.054688 -14.355469 "/></g></g></g><g fill="#ff00ff" fill-opacity="1"><g transform="translate(257.964892, 183.849341)"><g><path d="M 23.132812 1.148438 C 38.554688 1.148438 46.433594 -12.632812 46.433594 -28.300781 C 46.433594 -44.460938 38.554688 -58.082031 23.132812 -58.082031 C 7.710938 -58.082031 0 -44.460938 0 -28.300781 C 0 -12.632812 7.710938 1.148438 23.132812 1.148438 Z M 23.132812 -44.378906 C 29.285156 -44.378906 32.238281 -38.226562 32.238281 -28.300781 C 32.238281 -19.441406 29.285156 -12.386719 23.132812 -12.386719 C 17.144531 -12.386719 14.191406 -19.441406 14.191406 -28.300781 C 14.191406 -38.226562 17.144531 -44.378906 23.132812 -44.378906 Z M 23.132812 -44.378906 "/></g></g></g><g fill="#00ffff" fill-opacity="1"><g transform="translate(190.4485, 188.090817)"><g><path d="M 12.386719 -19.03125 L -0.328125 -19.03125 C -0.328125 -8.53125 5.824219 0.902344 19.769531 0.902344 C 34.453125 0.902344 41.835938 -8.53125 41.835938 -17.472656 C 41.835938 -22.230469 40.113281 -26.90625 34.535156 -29.777344 C 38.882812 -31.992188 40.113281 -36.585938 40.113281 -40.277344 C 40.113281 -52.09375 30.269531 -58.164062 20.425781 -58.164062 C 10.253906 -58.164062 0.164062 -51.929688 0.164062 -39.046875 L 12.304688 -39.046875 C 12.304688 -43.148438 15.914062 -45.035156 19.523438 -45.035156 C 23.050781 -45.035156 26.496094 -43.3125 26.496094 -39.867188 C 26.496094 -37.652344 24.691406 -35.273438 22.066406 -35.273438 L 13.535156 -35.273438 L 13.535156 -23.378906 L 22.066406 -23.378906 C 26.414062 -23.378906 28.136719 -20.261719 28.136719 -17.964844 C 28.136719 -14.4375 24.117188 -12.386719 20.097656 -12.386719 C 16.242188 -12.386719 12.386719 -14.355469 12.386719 -19.03125 Z M 12.386719 -19.03125 "/></g></g></g><g fill="#00ffff" fill-opacity="1"><g transform="translate(237.448934, 188.090817)"><g><path d="M 7.054688 -14.355469 C 2.953125 -14.355469 -0.328125 -11.402344 -0.328125 -7.054688 C -0.328125 -3.445312 2.953125 0.246094 7.054688 0.246094 C 11.484375 0.246094 14.683594 -3.445312 14.683594 -7.054688 C 14.683594 -11.402344 11.484375 -14.355469 7.054688 -14.355469 Z M 7.054688 -14.355469 "/></g></g></g><g fill="#00ffff" fill-opacity="1"><g transform="translate(257.217005, 188.090817)"><g><path d="M 23.132812 1.148438 C 38.554688 1.148438 46.433594 -12.632812 46.433594 -28.300781 C 46.433594 -44.460938 38.554688 -58.082031 23.132812 -58.082031 C 7.710938 -58.082031 0 -44.460938 0 -28.300781 C 0 -12.632812 7.710938 1.148438 23.132812 1.148438 Z M 23.132812 -44.378906 C 29.285156 -44.378906 32.238281 -38.226562 32.238281 -28.300781 C 32.238281 -19.441406 29.285156 -12.386719 23.132812 -12.386719 C 17.144531 -12.386719 14.191406 -19.441406 14.191406 -28.300781 C 14.191406 -38.226562 17.144531 -44.378906 23.132812 -44.378906 Z M 23.132812 -44.378906 "/></g></g></g><g fill="#2cffff" fill-opacity="1"><g transform="translate(190.822443, 185.970081)"><g><path d="M 12.386719 -19.03125 L -0.328125 -19.03125 C -0.328125 -8.53125 5.824219 0.902344 19.769531 0.902344 C 34.453125 0.902344 41.835938 -8.53125 41.835938 -17.472656 C 41.835938 -22.230469 40.113281 -26.90625 34.535156 -29.777344 C 38.882812 -31.992188 40.113281 -36.585938 40.113281 -40.277344 C 40.113281 -52.09375 30.269531 -58.164062 20.425781 -58.164062 C 10.253906 -58.164062 0.164062 -51.929688 0.164062 -39.046875 L 12.304688 -39.046875 C 12.304688 -43.148438 15.914062 -45.035156 19.523438 -45.035156 C 23.050781 -45.035156 26.496094 -43.3125 26.496094 -39.867188 C 26.496094 -37.652344 24.691406 -35.273438 22.066406 -35.273438 L 13.535156 -35.273438 L 13.535156 -23.378906 L 22.066406 -23.378906 C 26.414062 -23.378906 28.136719 -20.261719 28.136719 -17.964844 C 28.136719 -14.4375 24.117188 -12.386719 20.097656 -12.386719 C 16.242188 -12.386719 12.386719 -14.355469 12.386719 -19.03125 Z M 12.386719 -19.03125 "/></g></g></g><g fill="#2cffff" fill-opacity="1"><g transform="translate(237.822878, 185.970081)"><g><path d="M 7.054688 -14.355469 C 2.953125 -14.355469 -0.328125 -11.402344 -0.328125 -7.054688 C -0.328125 -3.445312 2.953125 0.246094 7.054688 0.246094 C 11.484375 0.246094 14.683594 -3.445312 14.683594 -7.054688 C 14.683594 -11.402344 11.484375 -14.355469 7.054688 -14.355469 Z M 7.054688 -14.355469 "/></g></g></g><g fill="#2cffff" fill-opacity="1"><g transform="translate(257.590948, 185.970081)"><g><path d="M 23.132812 1.148438 C 38.554688 1.148438 46.433594 -12.632812 46.433594 -28.300781 C 46.433594 -44.460938 38.554688 -58.082031 23.132812 -58.082031 C 7.710938 -58.082031 0 -44.460938 0 -28.300781 C 0 -12.632812 7.710938 1.148438 23.132812 1.148438 Z M 23.132812 -44.378906 C 29.285156 -44.378906 32.238281 -38.226562 32.238281 -28.300781 C 32.238281 -19.441406 29.285156 -12.386719 23.132812 -12.386719 C 17.144531 -12.386719 14.191406 -19.441406 14.191406 -28.300781 C 14.191406 -38.226562 17.144531 -44.378906 23.132812 -44.378906 Z M 23.132812 -44.378906 "/></g></g></g></svg>