<svg xmlns="http://www.w3.org/2000/svg" xmlns:xlink="http://www.w3.org/1999/xlink" width="640" zoomAndPan="magnify" viewBox="0 0 480 249.749984" height="333" preserveAspectRatio="xMidYMid meet" version="1.0"><defs><g/></defs><g fill="#ff00ff" fill-opacity="1"><g transform="translate(102.79138, 120.039442)"><g><path d="M 13.589844 -23.132812 C 13.589844 -31.949219 19.953125 -36.324219 26.316406 -36.324219 C 31.617188 -36.324219 36.988281 -33.277344 38.511719 -27.109375 L 49.980469 -27.109375 C 48.519531 -39.042969 38.246094 -47.128906 26.316406 -47.128906 C 13.058594 -47.128906 2.320312 -36.789062 2.320312 -23.132812 C 2.320312 -9.480469 13.058594 0.664062 26.316406 0.664062 C 38.378906 0.664062 48.324219 -7.359375 50.046875 -19.488281 L 38.578125 -19.488281 C 37.121094 -13.191406 31.75 -10.007812 26.316406 -10.007812 C 19.953125 -10.007812 13.589844 -14.382812 13.589844 -23.132812 Z M 13.589844 -23.132812 "/></g></g></g><g fill="#ff00ff" fill-opacity="1"><g transform="translate(154.95786, 120.039442)"><g><path d="M 18.296875 -36.457031 C 6.628906 -36.457031 0.929688 -28.238281 0.929688 -18.425781 C 0.929688 -8.550781 6.828125 0.464844 18.164062 0.464844 C 21.609375 0.464844 25.121094 -0.53125 27.574219 -3.578125 L 27.574219 0 L 37.980469 0 L 37.980469 -35.859375 L 27.574219 -35.859375 L 27.574219 -32.148438 C 25.253906 -35.132812 21.808594 -36.457031 18.296875 -36.457031 Z M 19.421875 -9.546875 C 14.117188 -9.546875 11.402344 -13.855469 11.402344 -18.164062 C 11.402344 -22.539062 14.050781 -26.847656 19.421875 -26.847656 C 23.929688 -26.847656 27.574219 -22.933594 27.574219 -18.164062 C 27.574219 -13.390625 23.929688 -9.546875 19.421875 -9.546875 Z M 19.421875 -9.546875 "/></g></g></g><g fill="#ff00ff" fill-opacity="1"><g transform="translate(197.579269, 120.039442)"><g><path d="M 21.609375 0.597656 C 33.277344 0.597656 38.976562 -7.621094 38.976562 -17.433594 C 38.976562 -27.308594 33.078125 -36.324219 21.742188 -36.324219 C 18.296875 -36.324219 14.78125 -35.332031 12.328125 -32.28125 L 12.328125 -35.859375 L 1.988281 -35.859375 L 1.988281 10.472656 L 12.328125 10.472656 L 12.328125 -3.3125 C 14.714844 -0.597656 18.097656 0.597656 21.609375 0.597656 Z M 20.480469 -26.316406 C 25.785156 -26.316406 28.503906 -22.007812 28.503906 -17.699219 C 28.503906 -13.390625 25.851562 -9.015625 20.480469 -9.015625 C 15.976562 -9.015625 12.328125 -12.925781 12.328125 -17.699219 C 12.328125 -22.472656 15.976562 -26.316406 20.480469 -26.316406 Z M 20.480469 -26.316406 "/></g></g></g><g fill="#ff00ff" fill-opacity="1"><g transform="translate(240.664672, 120.039442)"><g><path d="M 23.863281 0.0664062 L 23.53125 -8.550781 C 22.605469 -8.351562 21.542969 -8.21875 20.546875 -8.21875 C 18.03125 -8.21875 15.710938 -9.214844 15.710938 -12.394531 L 15.710938 -26.515625 L 23.199219 -26.515625 L 23.199219 -35.464844 L 15.710938 -35.464844 L 15.710938 -43.21875 L 5.304688 -42.289062 L 5.304688 -35.464844 L 0.597656 -35.464844 L 0.597656 -26.515625 L 5.304688 -26.515625 L 5.304688 -12.394531 C 5.304688 -3.117188 10.074219 0.597656 17.964844 0.597656 C 19.753906 0.597656 21.742188 0.398438 23.863281 0.0664062 Z M 23.863281 0.0664062 "/></g></g></g><g fill="#ff00ff" fill-opacity="1"><g transform="translate(268.173049, 120.039442)"><g><path d="M 24.855469 -3.644531 L 24.855469 0 L 35.398438 0 L 35.398438 -35.859375 L 24.328125 -35.859375 L 24.328125 -16.371094 C 24.328125 -11.601562 21.078125 -8.949219 17.964844 -8.949219 C 15.113281 -8.949219 12.328125 -11.203125 12.328125 -16.171875 L 12.328125 -35.859375 L 1.789062 -35.859375 L 1.789062 -16.109375 C 1.722656 -7.09375 4.574219 0.464844 15.113281 0.464844 C 18.824219 0.464844 22.40625 -0.53125 24.855469 -3.644531 Z M 24.855469 -3.644531 "/></g></g></g><g fill="#ff00ff" fill-opacity="1"><g transform="translate(308.209331, 120.039442)"><g><path d="M 11.800781 -33.472656 L 11.402344 -35.859375 L 1.988281 -35.859375 L 1.988281 0 L 12.394531 0 L 12.394531 -19.886719 C 12.394531 -24.726562 16.238281 -26.714844 20.019531 -26.78125 C 21.210938 -26.78125 22.472656 -26.582031 23.53125 -26.25 L 23.664062 -36.058594 C 22.273438 -36.390625 20.878906 -36.589844 19.621094 -36.589844 C 16.703125 -36.589844 14.117188 -35.660156 11.800781 -33.472656 Z M 11.800781 -33.472656 "/></g></g></g><g fill="#ff00ff" fill-opacity="1"><g transform="translate(335.386286, 120.039442)"><g><path d="M 37.914062 -18.03125 C 37.914062 -30.292969 28.636719 -36.390625 19.421875 -36.390625 C 10.074219 -36.390625 0.863281 -30.292969 0.863281 -18.03125 C 0.863281 -5.765625 10.074219 0.398438 19.355469 0.398438 C 26.78125 0.398438 34.136719 -3.511719 36.855469 -11.335938 L 25.519531 -11.335938 C 23.996094 -9.679688 21.808594 -8.882812 19.488281 -8.882812 C 16.304688 -8.949219 13.058594 -10.605469 11.800781 -13.921875 L 37.519531 -13.921875 C 37.78125 -15.246094 37.914062 -16.570312 37.914062 -18.03125 Z M 26.515625 -22.074219 L 12.195312 -22.074219 C 13.257812 -25.585938 16.109375 -27.308594 19.222656 -27.308594 C 22.605469 -27.308594 25.519531 -25.652344 26.515625 -22.074219 Z M 26.515625 -22.074219 "/></g></g></g><g fill="#00ffff" fill-opacity="1"><g transform="translate(102.187051, 123.466763)"><g><path d="M 13.589844 -23.132812 C 13.589844 -31.949219 19.953125 -36.324219 26.316406 -36.324219 C 31.617188 -36.324219 36.988281 -33.277344 38.511719 -27.109375 L 49.980469 -27.109375 C 48.519531 -39.042969 38.246094 -47.128906 26.316406 -47.128906 C 13.058594 -47.128906 2.320312 -36.789062 2.320312 -23.132812 C 2.320312 -9.480469 13.058594 0.664062 26.316406 0.664062 C 38.378906 0.664062 48.324219 -7.359375 50.046875 -19.488281 L 38.578125 -19.488281 C 37.121094 -13.191406 31.75 -10.007812 26.316406 -10.007812 C 19.953125 -10.007812 13.589844 -14.382812 13.589844 -23.132812 Z M 13.589844 -23.132812 "/></g></g></g><g fill="#00ffff" fill-opacity="1"><g transform="translate(154.353531, 123.466763)"><g><path d="M 18.296875 -36.457031 C 6.628906 -36.457031 0.929688 -28.238281 0.929688 -18.425781 C 0.929688 -8.550781 6.828125 0.464844 18.164062 0.464844 C 21.609375 0.464844 25.121094 -0.53125 27.574219 -3.578125 L 27.574219 0 L 37.980469 0 L 37.980469 -35.859375 L 27.574219 -35.859375 L 27.574219 -32.148438 C 25.253906 -35.132812 21.808594 -36.457031 18.296875 -36.457031 Z M 19.421875 -9.546875 C 14.117188 -9.546875 11.402344 -13.855469 11.402344 -18.164062 C 11.402344 -22.539062 14.050781 -26.847656 19.421875 -26.847656 C 23.929688 -26.847656 27.574219 -22.933594 27.574219 -18.164062 C 27.574219 -13.390625 23.929688 -9.546875 19.421875 -9.546875 Z M 19.421875 -9.546875 "/></g></g></g><g fill="#00ffff" fill-opacity="1"><g transform="translate(196.974941, 123.466763)"><g><path d="M 21.609375 0.597656 C 33.277344 0.597656 38.976562 -7.621094 38.976562 -17.433594 C 38.976562 -27.308594 33.078125 -36.324219 21.742188 -36.324219 C 18.296875 -36.324219 14.78125 -35.332031 12.328125 -32.28125 L 12.328125 -35.859375 L 1.988281 -35.859375 L 1.988281 10.472656 L 12.328125 10.472656 L 12.328125 -3.3125 C 14.714844 -0.597656 18.097656 0.597656 21.609375 0.597656 Z M 20.480469 -26.316406 C 25.785156 -26.316406 28.503906 -22.007812 28.503906 -17.699219 C 28.503906 -13.390625 25.851562 -9.015625 20.480469 -9.015625 C 15.976562 -9.015625 12.328125 -12.925781 12.328125 -17.699219 C 12.328125 -22.472656 15.976562 -26.316406 20.480469 -26.316406 Z M 20.480469 -26.316406 "/></g></g></g><g fill="#00ffff" fill-opacity="1"><g transform="translate(240.060344, 123.466763)"><g><path d="M 23.863281 0.0664062 L 23.53125 -8.550781 C 22.605469 -8.351562 21.542969 -8.21875 20.546875 -8.21875 C 18.03125 -8.21875 15.710938 -9.214844 15.710938 -12.394531 L 15.710938 -26.515625 L 23.199219 -26.515625 L 23.199219 -35.464844 L 15.710938 -35.464844 L 15.710938 -43.21875 L 5.304688 -42.289062 L 5.304688 -35.464844 L 0.597656 -35.464844 L 0.597656 -26.515625 L 5.304688 -26.515625 L 5.304688 -12.394531 C 5.304688 -3.117188 10.074219 0.597656 17.964844 0.597656 C 19.753906 0.597656 21.742188 0.398438 23.863281 0.0664062 Z M 23.863281 0.0664062 "/></g></g></g><g fill="#00ffff" fill-opacity="1"><g transform="translate(267.56872, 123.466763)"><g><path d="M 24.855469 -3.644531 L 24.855469 0 L 35.398438 0 L 35.398438 -35.859375 L 24.328125 -35.859375 L 24.328125 -16.371094 C 24.328125 -11.601562 21.078125 -8.949219 17.964844 -8.949219 C 15.113281 -8.949219 12.328125 -11.203125 12.328125 -16.171875 L 12.328125 -35.859375 L 1.789062 -35.859375 L 1.789062 -16.109375 C 1.722656 -7.09375 4.574219 0.464844 15.113281 0.464844 C 18.824219 0.464844 22.40625 -0.53125 24.855469 -3.644531 Z M 24.855469 -3.644531 "/></g></g></g><g fill="#00ffff" fill-opacity="1"><g transform="translate(307.605002, 123.466763)"><g><path d="M 11.800781 -33.472656 L 11.402344 -35.859375 L 1.988281 -35.859375 L 1.988281 0 L 12.394531 0 L 12.394531 -19.886719 C 12.394531 -24.726562 16.238281 -26.714844 20.019531 -26.78125 C 21.210938 -26.78125 22.472656 -26.582031 23.53125 -26.25 L 23.664062 -36.058594 C 22.273438 -36.390625 20.878906 -36.589844 19.621094 -36.589844 C 16.703125 -36.589844 14.117188 -35.660156 11.800781 -33.472656 Z M 11.800781 -33.472656 "/></g></g></g><g fill="#00ffff" fill-opacity="1"><g transform="translate(334.781958, 123.466763)"><g><path d="M 37.914062 -18.03125 C 37.914062 -30.292969 28.636719 -36.390625 19.421875 -36.390625 C 10.074219 -36.390625 0.863281 -30.292969 0.863281 -18.03125 C 0.863281 -5.765625 10.074219 0.398438 19.355469 0.398438 C 26.78125 0.398438 34.136719 -3.511719 36.855469 -11.335938 L 25.519531 -11.335938 C 23.996094 -9.679688 21.808594 -8.882812 19.488281 -8.882812 C 16.304688 -8.949219 13.058594 -10.605469 11.800781 -13.921875 L 37.519531 -13.921875 C 37.78125 -15.246094 37.914062 -16.570312 37.914062 -18.03125 Z M 26.515625 -22.074219 L 12.195312 -22.074219 C 13.257812 -25.585938 16.109375 -27.308594 19.222656 -27.308594 C 22.605469 -27.308594 25.519531 -25.652344 26.515625 -22.074219 Z M 26.515625 -22.074219 "/></g></g></g><g fill="#2cffff" fill-opacity="1"><g transform="translate(102.489215, 121.753102)"><g><path d="M 13.589844 -23.132812 C 13.589844 -31.949219 19.953125 -36.324219 26.316406 -36.324219 C 31.617188 -36.324219 36.988281 -33.277344 38.511719 -27.109375 L 49.980469 -27.109375 C 48.519531 -39.042969 38.246094 -47.128906 26.316406 -47.128906 C 13.058594 -47.128906 2.320312 -36.789062 2.320312 -23.132812 C 2.320312 -9.480469 13.058594 0.664062 26.316406 0.664062 C 38.378906 0.664062 48.324219 -7.359375 50.046875 -19.488281 L 38.578125 -19.488281 C 37.121094 -13.191406 31.75 -10.007812 26.316406 -10.007812 C 19.953125 -10.007812 13.589844 -14.382812 13.589844 -23.132812 Z M 13.589844 -23.132812 "/></g></g></g><g fill="#2cffff" fill-opacity="1"><g transform="translate(154.655696, 121.753102)"><g><path d="M 18.296875 -36.457031 C 6.628906 -36.457031 0.929688 -28.238281 0.929688 -18.425781 C 0.929688 -8.550781 6.828125 0.464844 18.164062 0.464844 C 21.609375 0.464844 25.121094 -0.53125 27.574219 -3.578125 L 27.574219 0 L 37.980469 0 L 37.980469 -35.859375 L 27.574219 -35.859375 L 27.574219 -32.148438 C 25.253906 -35.132812 21.808594 -36.457031 18.296875 -36.457031 Z M 19.421875 -9.546875 C 14.117188 -9.546875 11.402344 -13.855469 11.402344 -18.164062 C 11.402344 -22.539062 14.050781 -26.847656 19.421875 -26.847656 C 23.929688 -26.847656 27.574219 -22.933594 27.574219 -18.164062 C 27.574219 -13.390625 23.929688 -9.546875 19.421875 -9.546875 Z M 19.421875 -9.546875 "/></g></g></g><g fill="#2cffff" fill-opacity="1"><g transform="translate(197.277105, 121.753102)"><g><path d="M 21.609375 0.597656 C 33.277344 0.597656 38.976562 -7.621094 38.976562 -17.433594 C 38.976562 -27.308594 33.078125 -36.324219 21.742188 -36.324219 C 18.296875 -36.324219 14.78125 -35.332031 12.328125 -32.28125 L 12.328125 -35.859375 L 1.988281 -35.859375 L 1.988281 10.472656 L 12.328125 10.472656 L 12.328125 -3.3125 C 14.714844 -0.597656 18.097656 0.597656 21.609375 0.597656 Z M 20.480469 -26.316406 C 25.785156 -26.316406 28.503906 -22.007812 28.503906 -17.699219 C 28.503906 -13.390625 25.851562 -9.015625 20.480469 -9.015625 C 15.976562 -9.015625 12.328125 -12.925781 12.328125 -17.699219 C 12.328125 -22.472656 15.976562 -26.316406 20.480469 -26.316406 Z M 20.480469 -26.316406 "/></g></g></g><g fill="#2cffff" fill-opacity="1"><g transform="translate(240.362508, 121.753102)"><g><path d="M 23.863281 0.0664062 L 23.53125 -8.550781 C 22.605469 -8.351562 21.542969 -8.21875 20.546875 -8.21875 C 18.03125 -8.21875 15.710938 -9.214844 15.710938 -12.394531 L 15.710938 -26.515625 L 23.199219 -26.515625 L 23.199219 -35.464844 L 15.710938 -35.464844 L 15.710938 -43.21875 L 5.304688 -42.289062 L 5.304688 -35.464844 L 0.597656 -35.464844 L 0.597656 -26.515625 L 5.304688 -26.515625 L 5.304688 -12.394531 C 5.304688 -3.117188 10.074219 0.597656 17.964844 0.597656 C 19.753906 0.597656 21.742188 0.398438 23.863281 0.0664062 Z M 23.863281 0.0664062 "/></g></g></g><g fill="#2cffff" fill-opacity="1"><g transform="translate(267.870885, 121.753102)"><g><path d="M 24.855469 -3.644531 L 24.855469 0 L 35.398438 0 L 35.398438 -35.859375 L 24.328125 -35.859375 L 24.328125 -16.371094 C 24.328125 -11.601562 21.078125 -8.949219 17.964844 -8.949219 C 15.113281 -8.949219 12.328125 -11.203125 12.328125 -16.171875 L 12.328125 -35.859375 L 1.789062 -35.859375 L 1.789062 -16.109375 C 1.722656 -7.09375 4.574219 0.464844 15.113281 0.464844 C 18.824219 0.464844 22.40625 -0.53125 24.855469 -3.644531 Z M 24.855469 -3.644531 "/></g></g></g><g fill="#2cffff" fill-opacity="1"><g transform="translate(307.907166, 121.753102)"><g><path d="M 11.800781 -33.472656 L 11.402344 -35.859375 L 1.988281 -35.859375 L 1.988281 0 L 12.394531 0 L 12.394531 -19.886719 C 12.394531 -24.726562 16.238281 -26.714844 20.019531 -26.78125 C 21.210938 -26.78125 22.472656 -26.582031 23.53125 -26.25 L 23.664062 -36.058594 C 22.273438 -36.390625 20.878906 -36.589844 19.621094 -36.589844 C 16.703125 -36.589844 14.117188 -35.660156 11.800781 -33.472656 Z M 11.800781 -33.472656 "/></g></g></g><g fill="#2cffff" fill-opacity="1"><g transform="translate(335.084122, 121.753102)"><g><path d="M 37.914062 -18.03125 C 37.914062 -30.292969 28.636719 -36.390625 19.421875 -36.390625 C 10.074219 -36.390625 0.863281 -30.292969 0.863281 -18.03125 C 0.863281 -5.765625 10.074219 0.398438 19.355469 0.398438 C 26.78125 0.398438 34.136719 -3.511719 36.855469 -11.335938 L 25.519531 -11.335938 C 23.996094 -9.679688 21.808594 -8.882812 19.488281 -8.882812 C 16.304688 -8.949219 13.058594 -10.605469 11.800781 -13.921875 L 37.519531 -13.921875 C 37.78125 -15.246094 37.914062 -16.570312 37.914062 -18.03125 Z M 26.515625 -22.074219 L 12.195312 -22.074219 C 13.257812 -25.585938 16.109375 -27.308594 19.222656 -27.308594 C 22.605469 -27.308594 25.519531 -25.652344 26.515625 -22.074219 Z M 26.515625 -22.074219 "/></g></g></g><g fill="#ff00ff" fill-opacity="1"><g transform="translate(67.927844, 184.474935)"><g><path d="M 47.648438 -58.066406 L 2.707031 -58.066406 L 2.707031 -44.941406 L 18.207031 -44.941406 L 18.207031 0 L 32.230469 0 L 32.230469 -44.941406 L 47.648438 -44.941406 Z M 47.648438 -58.066406 "/></g></g></g><g fill="#00ffff" fill-opacity="1"><g transform="translate(67.323516, 187.902256)"><g><path d="M 47.648438 -58.066406 L 2.707031 -58.066406 L 2.707031 -44.941406 L 18.207031 -44.941406 L 18.207031 0 L 32.230469 0 L 32.230469 -44.941406 L 47.648438 -44.941406 Z M 47.648438 -58.066406 "/></g></g></g><g fill="#2cffff" fill-opacity="1"><g transform="translate(67.62568, 186.188595)"><g><path d="M 47.648438 -58.066406 L 2.707031 -58.066406 L 2.707031 -44.941406 L 18.207031 -44.941406 L 18.207031 0 L 32.230469 0 L 32.230469 -44.941406 L 47.648438 -44.941406 Z M 47.648438 -58.066406 "/></g></g></g><g fill="#ff00ff" fill-opacity="1"><g transform="translate(119.34512, 184.474935)"><g><path d="M 15.007812 -39.941406 L 15.007812 -57.820312 L 1.96875 -57.820312 L 1.96875 0 L 15.664062 0 L 15.664062 -24.113281 C 15.664062 -29.441406 20.339844 -32.804688 24.195312 -32.804688 C 27.71875 -32.804688 31 -30.261719 31 -24.359375 L 31 0 L 44.039062 0 L 44.039062 -24.441406 C 44.203125 -35.511719 40.679688 -44.859375 28.046875 -45.023438 C 23.292969 -45.023438 18.207031 -43.875 15.007812 -39.941406 Z M 15.007812 -39.941406 "/></g></g></g><g fill="#ff00ff" fill-opacity="1"><g transform="translate(169.123857, 184.474935)"><g><path d="M 46.910156 -22.308594 C 46.910156 -37.480469 35.429688 -45.023438 24.03125 -45.023438 C 12.464844 -45.023438 1.066406 -37.480469 1.066406 -22.308594 C 1.066406 -7.136719 12.464844 0.492188 23.949219 0.492188 C 33.132812 0.492188 42.238281 -4.347656 45.597656 -14.023438 L 31.574219 -14.023438 C 29.6875 -11.972656 26.980469 -10.988281 24.113281 -10.988281 C 20.175781 -11.070312 16.15625 -13.121094 14.597656 -17.222656 L 46.417969 -17.222656 C 46.746094 -18.863281 46.910156 -20.503906 46.910156 -22.308594 Z M 32.804688 -27.308594 L 15.089844 -27.308594 C 16.402344 -31.65625 19.929688 -33.789062 23.785156 -33.789062 C 27.964844 -33.789062 31.574219 -31.738281 32.804688 -27.308594 Z M 32.804688 -27.308594 "/></g></g></g><g fill="#ff00ff" fill-opacity="1"><g transform="translate(221.608851, 184.474935)"><g/></g></g><g fill="#ff00ff" fill-opacity="1"><g transform="translate(242.192805, 184.474935)"><g><path d="M 41.253906 -44.53125 L 41.253906 -57.902344 L 4.101562 -57.902344 L 4.101562 0 L 18.042969 0 L 18.042969 -20.75 L 39.941406 -20.75 L 39.941406 -33.789062 L 18.042969 -33.789062 L 18.042969 -44.53125 Z M 41.253906 -44.53125 "/></g></g></g><g fill="#ff00ff" fill-opacity="1"><g transform="translate(287.051069, 184.474935)"><g><path d="M 15.089844 -57.410156 L 1.96875 -57.410156 L 1.96875 0 L 15.089844 0 Z M 15.089844 -57.410156 "/></g></g></g><g fill="#ff00ff" fill-opacity="1"><g transform="translate(307.47101, 184.474935)"><g><path d="M 22.636719 -45.105469 C 8.203125 -45.105469 1.148438 -34.9375 1.148438 -22.800781 C 1.148438 -10.578125 8.449219 0.574219 22.472656 0.574219 C 26.734375 0.574219 31.082031 -0.65625 34.117188 -4.429688 L 34.117188 0 L 46.992188 0 L 46.992188 -44.367188 L 34.117188 -44.367188 L 34.117188 -39.777344 C 31.246094 -43.46875 26.980469 -45.105469 22.636719 -45.105469 Z M 24.03125 -11.808594 C 17.46875 -11.808594 14.105469 -17.140625 14.105469 -22.472656 C 14.105469 -27.882812 17.386719 -33.214844 24.03125 -33.214844 C 29.605469 -33.214844 34.117188 -28.375 34.117188 -22.472656 C 34.117188 -16.566406 29.605469 -11.808594 24.03125 -11.808594 Z M 24.03125 -11.808594 "/></g></g></g><g fill="#ff00ff" fill-opacity="1"><g transform="translate(360.202034, 184.474935)"><g><path d="M 22.390625 -0.164062 C 26.816406 -0.164062 31 -1.394531 33.871094 -4.757812 L 33.871094 -2.460938 C 33.460938 5.496094 28.292969 7.957031 23.539062 7.957031 C 19.519531 7.957031 15.828125 5.742188 15.828125 3.117188 L 2.296875 3.117188 C 2.296875 13.859375 13.203125 20.503906 24.195312 20.503906 C 35.429688 20.503906 46.746094 13.859375 46.746094 -2.542969 L 46.746094 -44.367188 L 33.871094 -44.367188 L 33.871094 -39.941406 C 30.917969 -43.792969 26.488281 -44.859375 22.144531 -44.859375 C 8.121094 -44.859375 0.984375 -34.527344 0.984375 -21.816406 C 0.984375 -9.59375 8.121094 -0.164062 22.390625 -0.164062 Z M 23.867188 -32.558594 C 29.359375 -32.558594 33.871094 -27.71875 33.871094 -21.816406 C 33.871094 -15.664062 28.867188 -12.464844 23.867188 -12.382812 C 18.863281 -12.382812 13.941406 -15.5 13.941406 -21.816406 C 13.941406 -27.144531 17.222656 -32.558594 23.867188 -32.558594 Z M 23.867188 -32.558594 "/></g></g></g><g fill="#00ffff" fill-opacity="1"><g transform="translate(118.740792, 187.902256)"><g><path d="M 15.007812 -39.941406 L 15.007812 -57.820312 L 1.96875 -57.820312 L 1.96875 0 L 15.664062 0 L 15.664062 -24.113281 C 15.664062 -29.441406 20.339844 -32.804688 24.195312 -32.804688 C 27.71875 -32.804688 31 -30.261719 31 -24.359375 L 31 0 L 44.039062 0 L 44.039062 -24.441406 C 44.203125 -35.511719 40.679688 -44.859375 28.046875 -45.023438 C 23.292969 -45.023438 18.207031 -43.875 15.007812 -39.941406 Z M 15.007812 -39.941406 "/></g></g></g><g fill="#00ffff" fill-opacity="1"><g transform="translate(168.519529, 187.902256)"><g><path d="M 46.910156 -22.308594 C 46.910156 -37.480469 35.429688 -45.023438 24.03125 -45.023438 C 12.464844 -45.023438 1.066406 -37.480469 1.066406 -22.308594 C 1.066406 -7.136719 12.464844 0.492188 23.949219 0.492188 C 33.132812 0.492188 42.238281 -4.347656 45.597656 -14.023438 L 31.574219 -14.023438 C 29.6875 -11.972656 26.980469 -10.988281 24.113281 -10.988281 C 20.175781 -11.070312 16.15625 -13.121094 14.597656 -17.222656 L 46.417969 -17.222656 C 46.746094 -18.863281 46.910156 -20.503906 46.910156 -22.308594 Z M 32.804688 -27.308594 L 15.089844 -27.308594 C 16.402344 -31.65625 19.929688 -33.789062 23.785156 -33.789062 C 27.964844 -33.789062 31.574219 -31.738281 32.804688 -27.308594 Z M 32.804688 -27.308594 "/></g></g></g><g fill="#00ffff" fill-opacity="1"><g transform="translate(221.004523, 187.902256)"><g/></g></g><g fill="#00ffff" fill-opacity="1"><g transform="translate(241.588477, 187.902256)"><g><path d="M 41.253906 -44.53125 L 41.253906 -57.902344 L 4.101562 -57.902344 L 4.101562 0 L 18.042969 0 L 18.042969 -20.75 L 39.941406 -20.75 L 39.941406 -33.789062 L 18.042969 -33.789062 L 18.042969 -44.53125 Z M 41.253906 -44.53125 "/></g></g></g><g fill="#00ffff" fill-opacity="1"><g transform="translate(286.44674, 187.902256)"><g><path d="M 15.089844 -57.410156 L 1.96875 -57.410156 L 1.96875 0 L 15.089844 0 Z M 15.089844 -57.410156 "/></g></g></g><g fill="#00ffff" fill-opacity="1"><g transform="translate(306.866682, 187.902256)"><g><path d="M 22.636719 -45.105469 C 8.203125 -45.105469 1.148438 -34.9375 1.148438 -22.800781 C 1.148438 -10.578125 8.449219 0.574219 22.472656 0.574219 C 26.734375 0.574219 31.082031 -0.65625 34.117188 -4.429688 L 34.117188 0 L 46.992188 0 L 46.992188 -44.367188 L 34.117188 -44.367188 L 34.117188 -39.777344 C 31.246094 -43.46875 26.980469 -45.105469 22.636719 -45.105469 Z M 24.03125 -11.808594 C 17.46875 -11.808594 14.105469 -17.140625 14.105469 -22.472656 C 14.105469 -27.882812 17.386719 -33.214844 24.03125 -33.214844 C 29.605469 -33.214844 34.117188 -28.375 34.117188 -22.472656 C 34.117188 -16.566406 29.605469 -11.808594 24.03125 -11.808594 Z M 24.03125 -11.808594 "/></g></g></g><g fill="#00ffff" fill-opacity="1"><g transform="translate(359.597706, 187.902256)"><g><path d="M 22.390625 -0.164062 C 26.816406 -0.164062 31 -1.394531 33.871094 -4.757812 L 33.871094 -2.460938 C 33.460938 5.496094 28.292969 7.957031 23.539062 7.957031 C 19.519531 7.957031 15.828125 5.742188 15.828125 3.117188 L 2.296875 3.117188 C 2.296875 13.859375 13.203125 20.503906 24.195312 20.503906 C 35.429688 20.503906 46.746094 13.859375 46.746094 -2.542969 L 46.746094 -44.367188 L 33.871094 -44.367188 L 33.871094 -39.941406 C 30.917969 -43.792969 26.488281 -44.859375 22.144531 -44.859375 C 8.121094 -44.859375 0.984375 -34.527344 0.984375 -21.816406 C 0.984375 -9.59375 8.121094 -0.164062 22.390625 -0.164062 Z M 23.867188 -32.558594 C 29.359375 -32.558594 33.871094 -27.71875 33.871094 -21.816406 C 33.871094 -15.664062 28.867188 -12.464844 23.867188 -12.382812 C 18.863281 -12.382812 13.941406 -15.5 13.941406 -21.816406 C 13.941406 -27.144531 17.222656 -32.558594 23.867188 -32.558594 Z M 23.867188 -32.558594 "/></g></g></g><g fill="#2cffff" fill-opacity="1"><g transform="translate(119.042956, 186.188595)"><g><path d="M 15.007812 -39.941406 L 15.007812 -57.820312 L 1.96875 -57.820312 L 1.96875 0 L 15.664062 0 L 15.664062 -24.113281 C 15.664062 -29.441406 20.339844 -32.804688 24.195312 -32.804688 C 27.71875 -32.804688 31 -30.261719 31 -24.359375 L 31 0 L 44.039062 0 L 44.039062 -24.441406 C 44.203125 -35.511719 40.679688 -44.859375 28.046875 -45.023438 C 23.292969 -45.023438 18.207031 -43.875 15.007812 -39.941406 Z M 15.007812 -39.941406 "/></g></g></g><g fill="#2cffff" fill-opacity="1"><g transform="translate(168.821693, 186.188595)"><g><path d="M 46.910156 -22.308594 C 46.910156 -37.480469 35.429688 -45.023438 24.03125 -45.023438 C 12.464844 -45.023438 1.066406 -37.480469 1.066406 -22.308594 C 1.066406 -7.136719 12.464844 0.492188 23.949219 0.492188 C 33.132812 0.492188 42.238281 -4.347656 45.597656 -14.023438 L 31.574219 -14.023438 C 29.6875 -11.972656 26.980469 -10.988281 24.113281 -10.988281 C 20.175781 -11.070312 16.15625 -13.121094 14.597656 -17.222656 L 46.417969 -17.222656 C 46.746094 -18.863281 46.910156 -20.503906 46.910156 -22.308594 Z M 32.804688 -27.308594 L 15.089844 -27.308594 C 16.402344 -31.65625 19.929688 -33.789062 23.785156 -33.789062 C 27.964844 -33.789062 31.574219 -31.738281 32.804688 -27.308594 Z M 32.804688 -27.308594 "/></g></g></g><g fill="#2cffff" fill-opacity="1"><g transform="translate(221.306687, 186.188595)"><g/></g></g><g fill="#2cffff" fill-opacity="1"><g transform="translate(241.890641, 186.188595)"><g><path d="M 41.253906 -44.53125 L 41.253906 -57.902344 L 4.101562 -57.902344 L 4.101562 0 L 18.042969 0 L 18.042969 -20.75 L 39.941406 -20.75 L 39.941406 -33.789062 L 18.042969 -33.789062 L 18.042969 -44.53125 Z M 41.253906 -44.53125 "/></g></g></g><g fill="#2cffff" fill-opacity="1"><g transform="translate(286.748905, 186.188595)"><g><path d="M 15.089844 -57.410156 L 1.96875 -57.410156 L 1.96875 0 L 15.089844 0 Z M 15.089844 -57.410156 "/></g></g></g><g fill="#2cffff" fill-opacity="1"><g transform="translate(307.168846, 186.188595)"><g><path d="M 22.636719 -45.105469 C 8.203125 -45.105469 1.148438 -34.9375 1.148438 -22.800781 C 1.148438 -10.578125 8.449219 0.574219 22.472656 0.574219 C 26.734375 0.574219 31.082031 -0.65625 34.117188 -4.429688 L 34.117188 0 L 46.992188 0 L 46.992188 -44.367188 L 34.117188 -44.367188 L 34.117188 -39.777344 C 31.246094 -43.46875 26.980469 -45.105469 22.636719 -45.105469 Z M 24.03125 -11.808594 C 17.46875 -11.808594 14.105469 -17.140625 14.105469 -22.472656 C 14.105469 -27.882812 17.386719 -33.214844 24.03125 -33.214844 C 29.605469 -33.214844 34.117188 -28.375 34.117188 -22.472656 C 34.117188 -16.566406 29.605469 -11.808594 24.03125 -11.808594 Z M 24.03125 -11.808594 "/></g></g></g><g fill="#2cffff" fill-opacity="1"><g transform="translate(359.89987, 186.188595)"><g><path d="M 22.390625 -0.164062 C 26.816406 -0.164062 31 -1.394531 33.871094 -4.757812 L 33.871094 -2.460938 C 33.460938 5.496094 28.292969 7.957031 23.539062 7.957031 C 19.519531 7.957031 15.828125 5.742188 15.828125 3.117188 L 2.296875 3.117188 C 2.296875 13.859375 13.203125 20.503906 24.195312 20.503906 C 35.429688 20.503906 46.746094 13.859375 46.746094 -2.542969 L 46.746094 -44.367188 L 33.871094 -44.367188 L 33.871094 -39.941406 C 30.917969 -43.792969 26.488281 -44.859375 22.144531 -44.859375 C 8.121094 -44.859375 0.984375 -34.527344 0.984375 -21.816406 C 0.984375 -9.59375 8.121094 -0.164062 22.390625 -0.164062 Z M 23.867188 -32.558594 C 29.359375 -32.558594 33.871094 -27.71875 33.871094 -21.816406 C 33.871094 -15.664062 28.867188 -12.464844 23.867188 -12.382812 C 18.863281 -12.382812 13.941406 -15.5 13.941406 -21.816406 C 13.941406 -27.144531 17.222656 -32.558594 23.867188 -32.558594 Z M 23.867188 -32.558594 "/></g></g></g></svg>