<svg xmlns="http://www.w3.org/2000/svg" xmlns:xlink="http://www.w3.org/1999/xlink" width="640" zoomAndPan="magnify" viewBox="0 0 480 249.749984" height="333" preserveAspectRatio="xMidYMid meet" version="1.0"><defs><g/></defs><g fill="#ff00ff" fill-opacity="1"><g transform="translate(82.098511, 82.7313)"><g><path d="M 35.574219 -42.921875 L 50.984375 -42.921875 C 50.984375 -57.347656 38.886719 -63.621094 27.6875 -63.621094 C 14.335938 -63.621094 3.046875 -55.375 3.761719 -41.578125 L 3.761719 -41.667969 C 4.929688 -27.238281 16.933594 -25 27.0625 -24.015625 C 29.390625 -23.746094 36.558594 -23.566406 36.558594 -19.085938 C 36.558594 -15.5 32.527344 -14.066406 27.507812 -14.066406 C 24.015625 -14.066406 18.816406 -15.234375 18.816406 -21.414062 L 3.316406 -21.414062 C 3.316406 -5.464844 17.203125 0.804688 27.417969 0.804688 C 39.335938 0.804688 52.058594 -6.71875 52.058594 -19.800781 C 52.058594 -21.148438 51.882812 -22.757812 51.613281 -24.191406 C 48.925781 -35.484375 37.722656 -37.8125 28.851562 -38.976562 C 26.792969 -39.15625 19.355469 -39.246094 19.355469 -43.90625 C 19.355469 -47.3125 22.671875 -49.371094 27.417969 -49.371094 C 32.167969 -49.371094 35.574219 -47.132812 35.574219 -42.921875 Z M 35.574219 -42.921875 "/></g></g></g><g fill="#ff00ff" fill-opacity="1"><g transform="translate(138.187492, 82.7313)"><g><path d="M -0.894531 -48.476562 L -0.894531 -46.324219 L 14.515625 0 L 28.046875 0 L 30.105469 -5.554688 L 34.320312 -19.175781 L 38.351562 -5.734375 L 40.5 0 L 54.03125 0 L 69.445312 -46.324219 L 69.445312 -48.476562 L 55.015625 -48.476562 L 50.179688 -33.871094 L 46.953125 -20.609375 L 39.335938 -45.699219 L 29.210938 -45.699219 L 21.59375 -20.609375 L 18.367188 -33.871094 L 13.53125 -48.476562 Z M -0.894531 -48.476562 "/></g></g></g><g fill="#ff00ff" fill-opacity="1"><g transform="translate(210.9419, 82.7313)"><g><path d="M 1.972656 -59.140625 C 1.972656 -53.851562 6.273438 -51.253906 10.574219 -51.253906 C 14.695312 -51.253906 18.90625 -53.851562 18.90625 -59.140625 C 18.90625 -64.695312 14.605469 -67.382812 10.304688 -67.382812 C 6.183594 -67.382812 1.972656 -64.605469 1.972656 -59.140625 Z M 3.316406 -48.476562 L 17.652344 -48.476562 L 17.652344 0 L 3.316406 0 Z M 3.316406 -48.476562 "/></g></g></g><g fill="#ff00ff" fill-opacity="1"><g transform="translate(234.954443, 82.7313)"><g><path d="M 32.257812 0.0898438 L 31.808594 -11.558594 C 30.554688 -11.289062 29.121094 -11.109375 27.777344 -11.109375 C 24.371094 -11.109375 21.234375 -12.453125 21.234375 -16.757812 L 21.234375 -35.84375 L 31.363281 -35.84375 L 31.363281 -47.9375 L 21.234375 -47.9375 L 21.234375 -58.421875 L 7.167969 -57.167969 L 7.167969 -47.9375 L 0.804688 -47.9375 L 0.804688 -35.84375 L 7.167969 -35.84375 L 7.167969 -16.757812 C 7.167969 -4.210938 13.621094 0.804688 24.28125 0.804688 C 26.703125 0.804688 29.390625 0.539062 32.257812 0.0898438 Z M 32.257812 0.0898438 "/></g></g></g><g fill="#ff00ff" fill-opacity="1"><g transform="translate(272.138036, 82.7313)"><g><path d="M 50 -20.609375 L 36.019531 -20.609375 C 34.40625 -15.234375 30.015625 -12.722656 25.714844 -12.722656 C 20.339844 -12.722656 14.964844 -16.667969 14.964844 -24.28125 C 14.964844 -31.898438 20.339844 -35.84375 25.714844 -35.84375 C 30.015625 -35.84375 34.40625 -33.242188 36.019531 -27.867188 L 50 -27.867188 C 48.117188 -42.113281 36.917969 -49.101562 25.714844 -49.101562 C 13.441406 -49.101562 1.164062 -40.679688 1.164062 -24.28125 C 1.164062 -7.886719 13.441406 0.539062 25.714844 0.539062 C 36.917969 0.539062 48.117188 -6.453125 50 -20.609375 Z M 50 -20.609375 "/></g></g></g><g fill="#ff00ff" fill-opacity="1"><g transform="translate(327.151835, 82.7313)"><g><path d="M 16.398438 -43.636719 L 16.398438 -63.171875 L 2.152344 -63.171875 L 2.152344 0 L 17.113281 0 L 17.113281 -26.34375 C 17.113281 -32.167969 22.222656 -35.84375 26.433594 -35.84375 C 30.285156 -35.84375 33.871094 -33.0625 33.871094 -26.613281 L 33.871094 0 L 48.117188 0 L 48.117188 -26.703125 C 48.296875 -38.796875 44.445312 -49.015625 30.644531 -49.191406 C 25.449219 -49.191406 19.890625 -47.9375 16.398438 -43.636719 Z M 16.398438 -43.636719 "/></g></g></g><g fill="#00ffff" fill-opacity="1"><g transform="translate(81.281579, 87.364368)"><g><path d="M 35.574219 -42.921875 L 50.984375 -42.921875 C 50.984375 -57.347656 38.886719 -63.621094 27.6875 -63.621094 C 14.335938 -63.621094 3.046875 -55.375 3.761719 -41.578125 L 3.761719 -41.667969 C 4.929688 -27.238281 16.933594 -25 27.0625 -24.015625 C 29.390625 -23.746094 36.558594 -23.566406 36.558594 -19.085938 C 36.558594 -15.5 32.527344 -14.066406 27.507812 -14.066406 C 24.015625 -14.066406 18.816406 -15.234375 18.816406 -21.414062 L 3.316406 -21.414062 C 3.316406 -5.464844 17.203125 0.804688 27.417969 0.804688 C 39.335938 0.804688 52.058594 -6.71875 52.058594 -19.800781 C 52.058594 -21.148438 51.882812 -22.757812 51.613281 -24.191406 C 48.925781 -35.484375 37.722656 -37.8125 28.851562 -38.976562 C 26.792969 -39.15625 19.355469 -39.246094 19.355469 -43.90625 C 19.355469 -47.3125 22.671875 -49.371094 27.417969 -49.371094 C 32.167969 -49.371094 35.574219 -47.132812 35.574219 -42.921875 Z M 35.574219 -42.921875 "/></g></g></g><g fill="#00ffff" fill-opacity="1"><g transform="translate(137.37056, 87.364368)"><g><path d="M -0.894531 -48.476562 L -0.894531 -46.324219 L 14.515625 0 L 28.046875 0 L 30.105469 -5.554688 L 34.320312 -19.175781 L 38.351562 -5.734375 L 40.5 0 L 54.03125 0 L 69.445312 -46.324219 L 69.445312 -48.476562 L 55.015625 -48.476562 L 50.179688 -33.871094 L 46.953125 -20.609375 L 39.335938 -45.699219 L 29.210938 -45.699219 L 21.59375 -20.609375 L 18.367188 -33.871094 L 13.53125 -48.476562 Z M -0.894531 -48.476562 "/></g></g></g><g fill="#00ffff" fill-opacity="1"><g transform="translate(210.124968, 87.364368)"><g><path d="M 1.972656 -59.140625 C 1.972656 -53.851562 6.273438 -51.253906 10.574219 -51.253906 C 14.695312 -51.253906 18.90625 -53.851562 18.90625 -59.140625 C 18.90625 -64.695312 14.605469 -67.382812 10.304688 -67.382812 C 6.183594 -67.382812 1.972656 -64.605469 1.972656 -59.140625 Z M 3.316406 -48.476562 L 17.652344 -48.476562 L 17.652344 0 L 3.316406 0 Z M 3.316406 -48.476562 "/></g></g></g><g fill="#00ffff" fill-opacity="1"><g transform="translate(234.137511, 87.364368)"><g><path d="M 32.257812 0.0898438 L 31.808594 -11.558594 C 30.554688 -11.289062 29.121094 -11.109375 27.777344 -11.109375 C 24.371094 -11.109375 21.234375 -12.453125 21.234375 -16.757812 L 21.234375 -35.84375 L 31.363281 -35.84375 L 31.363281 -47.9375 L 21.234375 -47.9375 L 21.234375 -58.421875 L 7.167969 -57.167969 L 7.167969 -47.9375 L 0.804688 -47.9375 L 0.804688 -35.84375 L 7.167969 -35.84375 L 7.167969 -16.757812 C 7.167969 -4.210938 13.621094 0.804688 24.28125 0.804688 C 26.703125 0.804688 29.390625 0.539062 32.257812 0.0898438 Z M 32.257812 0.0898438 "/></g></g></g><g fill="#00ffff" fill-opacity="1"><g transform="translate(271.321104, 87.364368)"><g><path d="M 50 -20.609375 L 36.019531 -20.609375 C 34.40625 -15.234375 30.015625 -12.722656 25.714844 -12.722656 C 20.339844 -12.722656 14.964844 -16.667969 14.964844 -24.28125 C 14.964844 -31.898438 20.339844 -35.84375 25.714844 -35.84375 C 30.015625 -35.84375 34.40625 -33.242188 36.019531 -27.867188 L 50 -27.867188 C 48.117188 -42.113281 36.917969 -49.101562 25.714844 -49.101562 C 13.441406 -49.101562 1.164062 -40.679688 1.164062 -24.28125 C 1.164062 -7.886719 13.441406 0.539062 25.714844 0.539062 C 36.917969 0.539062 48.117188 -6.453125 50 -20.609375 Z M 50 -20.609375 "/></g></g></g><g fill="#00ffff" fill-opacity="1"><g transform="translate(326.334903, 87.364368)"><g><path d="M 16.398438 -43.636719 L 16.398438 -63.171875 L 2.152344 -63.171875 L 2.152344 0 L 17.113281 0 L 17.113281 -26.34375 C 17.113281 -32.167969 22.222656 -35.84375 26.433594 -35.84375 C 30.285156 -35.84375 33.871094 -33.0625 33.871094 -26.613281 L 33.871094 0 L 48.117188 0 L 48.117188 -26.703125 C 48.296875 -38.796875 44.445312 -49.015625 30.644531 -49.191406 C 25.449219 -49.191406 19.890625 -47.9375 16.398438 -43.636719 Z M 16.398438 -43.636719 "/></g></g></g><g fill="#2cffff" fill-opacity="1"><g transform="translate(81.690044, 85.047834)"><g><path d="M 35.574219 -42.921875 L 50.984375 -42.921875 C 50.984375 -57.347656 38.886719 -63.621094 27.6875 -63.621094 C 14.335938 -63.621094 3.046875 -55.375 3.761719 -41.578125 L 3.761719 -41.667969 C 4.929688 -27.238281 16.933594 -25 27.0625 -24.015625 C 29.390625 -23.746094 36.558594 -23.566406 36.558594 -19.085938 C 36.558594 -15.5 32.527344 -14.066406 27.507812 -14.066406 C 24.015625 -14.066406 18.816406 -15.234375 18.816406 -21.414062 L 3.316406 -21.414062 C 3.316406 -5.464844 17.203125 0.804688 27.417969 0.804688 C 39.335938 0.804688 52.058594 -6.71875 52.058594 -19.800781 C 52.058594 -21.148438 51.882812 -22.757812 51.613281 -24.191406 C 48.925781 -35.484375 37.722656 -37.8125 28.851562 -38.976562 C 26.792969 -39.15625 19.355469 -39.246094 19.355469 -43.90625 C 19.355469 -47.3125 22.671875 -49.371094 27.417969 -49.371094 C 32.167969 -49.371094 35.574219 -47.132812 35.574219 -42.921875 Z M 35.574219 -42.921875 "/></g></g></g><g fill="#2cffff" fill-opacity="1"><g transform="translate(137.779025, 85.047834)"><g><path d="M -0.894531 -48.476562 L -0.894531 -46.324219 L 14.515625 0 L 28.046875 0 L 30.105469 -5.554688 L 34.320312 -19.175781 L 38.351562 -5.734375 L 40.5 0 L 54.03125 0 L 69.445312 -46.324219 L 69.445312 -48.476562 L 55.015625 -48.476562 L 50.179688 -33.871094 L 46.953125 -20.609375 L 39.335938 -45.699219 L 29.210938 -45.699219 L 21.59375 -20.609375 L 18.367188 -33.871094 L 13.53125 -48.476562 Z M -0.894531 -48.476562 "/></g></g></g><g fill="#2cffff" fill-opacity="1"><g transform="translate(210.533433, 85.047834)"><g><path d="M 1.972656 -59.140625 C 1.972656 -53.851562 6.273438 -51.253906 10.574219 -51.253906 C 14.695312 -51.253906 18.90625 -53.851562 18.90625 -59.140625 C 18.90625 -64.695312 14.605469 -67.382812 10.304688 -67.382812 C 6.183594 -67.382812 1.972656 -64.605469 1.972656 -59.140625 Z M 3.316406 -48.476562 L 17.652344 -48.476562 L 17.652344 0 L 3.316406 0 Z M 3.316406 -48.476562 "/></g></g></g><g fill="#2cffff" fill-opacity="1"><g transform="translate(234.545976, 85.047834)"><g><path d="M 32.257812 0.0898438 L 31.808594 -11.558594 C 30.554688 -11.289062 29.121094 -11.109375 27.777344 -11.109375 C 24.371094 -11.109375 21.234375 -12.453125 21.234375 -16.757812 L 21.234375 -35.84375 L 31.363281 -35.84375 L 31.363281 -47.9375 L 21.234375 -47.9375 L 21.234375 -58.421875 L 7.167969 -57.167969 L 7.167969 -47.9375 L 0.804688 -47.9375 L 0.804688 -35.84375 L 7.167969 -35.84375 L 7.167969 -16.757812 C 7.167969 -4.210938 13.621094 0.804688 24.28125 0.804688 C 26.703125 0.804688 29.390625 0.539062 32.257812 0.0898438 Z M 32.257812 0.0898438 "/></g></g></g><g fill="#2cffff" fill-opacity="1"><g transform="translate(271.729569, 85.047834)"><g><path d="M 50 -20.609375 L 36.019531 -20.609375 C 34.40625 -15.234375 30.015625 -12.722656 25.714844 -12.722656 C 20.339844 -12.722656 14.964844 -16.667969 14.964844 -24.28125 C 14.964844 -31.898438 20.339844 -35.84375 25.714844 -35.84375 C 30.015625 -35.84375 34.40625 -33.242188 36.019531 -27.867188 L 50 -27.867188 C 48.117188 -42.113281 36.917969 -49.101562 25.714844 -49.101562 C 13.441406 -49.101562 1.164062 -40.679688 1.164062 -24.28125 C 1.164062 -7.886719 13.441406 0.539062 25.714844 0.539062 C 36.917969 0.539062 48.117188 -6.453125 50 -20.609375 Z M 50 -20.609375 "/></g></g></g><g fill="#2cffff" fill-opacity="1"><g transform="translate(326.743368, 85.047834)"><g><path d="M 16.398438 -43.636719 L 16.398438 -63.171875 L 2.152344 -63.171875 L 2.152344 0 L 17.113281 0 L 17.113281 -26.34375 C 17.113281 -32.167969 22.222656 -35.84375 26.433594 -35.84375 C 30.285156 -35.84375 33.871094 -33.0625 33.871094 -26.613281 L 33.871094 0 L 48.117188 0 L 48.117188 -26.703125 C 48.296875 -38.796875 44.445312 -49.015625 30.644531 -49.191406 C 25.449219 -49.191406 19.890625 -47.9375 16.398438 -43.636719 Z M 16.398438 -43.636719 "/></g></g></g><g fill="#ff00ff" fill-opacity="1"><g transform="translate(381.529135, 82.7313)"><g/></g></g><g fill="#00ffff" fill-opacity="1"><g transform="translate(380.712203, 87.364368)"><g/></g></g><g fill="#2cffff" fill-opacity="1"><g transform="translate(381.120668, 85.047834)"><g/></g></g><g fill="#ff00ff" fill-opacity="1"><g transform="translate(181.891665, 153.949998)"><g><path d="M 13.261719 -62.902344 L 0.179688 -62.902344 L 0.179688 -35.125 L 13.261719 -35.125 Z M 13.261719 -62.902344 "/></g></g></g><g fill="#ff00ff" fill-opacity="1"><g transform="translate(201.961844, 153.949998)"><g><path d="M 16.308594 -43.636719 L 16.308594 -48.476562 L 2.0625 -48.476562 L 2.0625 0 L 17.023438 0 L 17.023438 -26.34375 C 17.023438 -32.527344 22.042969 -36.109375 26.253906 -36.109375 C 30.105469 -36.109375 33.78125 -33.152344 33.78125 -26.613281 L 33.78125 0 L 48.117188 0 L 48.117188 -26.703125 C 48.207031 -38.796875 44.445312 -49.015625 30.644531 -49.191406 C 25.449219 -49.191406 19.714844 -47.9375 16.308594 -43.636719 Z M 16.308594 -43.636719 "/></g></g></g><g fill="#ff00ff" fill-opacity="1"><g transform="translate(256.348449, 153.949998)"><g><path d="M 13.261719 -62.902344 L 0.179688 -62.902344 L 0.179688 -35.125 L 13.261719 -35.125 Z M 13.261719 -62.902344 "/></g></g></g><g fill="#00ffff" fill-opacity="1"><g transform="translate(181.074733, 158.583066)"><g><path d="M 13.261719 -62.902344 L 0.179688 -62.902344 L 0.179688 -35.125 L 13.261719 -35.125 Z M 13.261719 -62.902344 "/></g></g></g><g fill="#00ffff" fill-opacity="1"><g transform="translate(201.144913, 158.583066)"><g><path d="M 16.308594 -43.636719 L 16.308594 -48.476562 L 2.0625 -48.476562 L 2.0625 0 L 17.023438 0 L 17.023438 -26.34375 C 17.023438 -32.527344 22.042969 -36.109375 26.253906 -36.109375 C 30.105469 -36.109375 33.78125 -33.152344 33.78125 -26.613281 L 33.78125 0 L 48.117188 0 L 48.117188 -26.703125 C 48.207031 -38.796875 44.445312 -49.015625 30.644531 -49.191406 C 25.449219 -49.191406 19.714844 -47.9375 16.308594 -43.636719 Z M 16.308594 -43.636719 "/></g></g></g><g fill="#00ffff" fill-opacity="1"><g transform="translate(255.531517, 158.583066)"><g><path d="M 13.261719 -62.902344 L 0.179688 -62.902344 L 0.179688 -35.125 L 13.261719 -35.125 Z M 13.261719 -62.902344 "/></g></g></g><g fill="#2cffff" fill-opacity="1"><g transform="translate(181.483198, 156.266532)"><g><path d="M 13.261719 -62.902344 L 0.179688 -62.902344 L 0.179688 -35.125 L 13.261719 -35.125 Z M 13.261719 -62.902344 "/></g></g></g><g fill="#2cffff" fill-opacity="1"><g transform="translate(201.553377, 156.266532)"><g><path d="M 16.308594 -43.636719 L 16.308594 -48.476562 L 2.0625 -48.476562 L 2.0625 0 L 17.023438 0 L 17.023438 -26.34375 C 17.023438 -32.527344 22.042969 -36.109375 26.253906 -36.109375 C 30.105469 -36.109375 33.78125 -33.152344 33.78125 -26.613281 L 33.78125 0 L 48.117188 0 L 48.117188 -26.703125 C 48.207031 -38.796875 44.445312 -49.015625 30.644531 -49.191406 C 25.449219 -49.191406 19.714844 -47.9375 16.308594 -43.636719 Z M 16.308594 -43.636719 "/></g></g></g><g fill="#2cffff" fill-opacity="1"><g transform="translate(255.939982, 156.266532)"><g><path d="M 13.261719 -62.902344 L 0.179688 -62.902344 L 0.179688 -35.125 L 13.261719 -35.125 Z M 13.261719 -62.902344 "/></g></g></g><g fill="#ff00ff" fill-opacity="1"><g transform="translate(276.415044, 153.949998)"><g/></g></g><g fill="#00ffff" fill-opacity="1"><g transform="translate(275.598112, 158.583066)"><g/></g></g><g fill="#2cffff" fill-opacity="1"><g transform="translate(276.006577, 156.266532)"><g/></g></g><g fill="#ff00ff" fill-opacity="1"><g transform="translate(119.306699, 225.168695)"><g><path d="M 18.367188 -31.273438 C 18.367188 -43.1875 26.972656 -49.101562 35.574219 -49.101562 C 42.742188 -49.101562 50 -44.980469 52.058594 -36.648438 L 67.5625 -36.648438 C 65.589844 -52.777344 51.703125 -63.707031 35.574219 -63.707031 C 17.652344 -63.707031 3.136719 -49.730469 3.136719 -31.273438 C 3.136719 -12.8125 17.652344 0.894531 35.574219 0.894531 C 51.882812 0.894531 65.320312 -9.945312 67.652344 -26.34375 L 52.148438 -26.34375 C 50.179688 -17.832031 42.921875 -13.53125 35.574219 -13.53125 C 26.972656 -13.53125 18.367188 -19.445312 18.367188 -31.273438 Z M 18.367188 -31.273438 "/></g></g></g><g fill="#ff00ff" fill-opacity="1"><g transform="translate(189.821121, 225.168695)"><g><path d="M 52.058594 -24.191406 C 52.058594 -41.488281 39.15625 -50.089844 26.253906 -50.089844 C 13.261719 -50.089844 0.359375 -41.488281 0.359375 -24.191406 C 0.359375 -6.988281 13.351562 1.613281 26.253906 1.613281 C 39.15625 1.613281 52.058594 -6.988281 52.058594 -24.191406 Z M 14.515625 -24.191406 C 14.515625 -32.4375 20.339844 -36.558594 26.253906 -36.558594 C 32.707031 -36.558594 37.902344 -32.4375 37.902344 -24.191406 C 37.902344 -16.039062 32.078125 -12.007812 26.253906 -12.007812 C 20.339844 -12.007812 14.515625 -16.039062 14.515625 -24.191406 Z M 14.515625 -24.191406 "/></g></g></g><g fill="#ff00ff" fill-opacity="1"><g transform="translate(246.537297, 225.168695)"><g><path d="M 24.730469 -49.28125 C 8.960938 -49.28125 1.253906 -38.171875 1.253906 -24.910156 C 1.253906 -11.558594 9.230469 0.628906 24.550781 0.628906 C 29.210938 0.628906 33.960938 -0.71875 37.277344 -4.839844 L 37.277344 0 L 51.34375 0 L 51.34375 -63.171875 L 37.277344 -63.171875 L 37.277344 -44.085938 C 34.050781 -47.757812 29.480469 -49.28125 24.730469 -49.28125 Z M 26.253906 -12.902344 C 19.085938 -12.902344 15.410156 -18.726562 15.410156 -24.550781 C 15.410156 -30.464844 18.996094 -36.289062 26.253906 -36.289062 C 32.347656 -36.289062 37.277344 -31.003906 37.277344 -24.550781 C 37.277344 -18.101562 32.347656 -12.902344 26.253906 -12.902344 Z M 26.253906 -12.902344 "/></g></g></g><g fill="#ff00ff" fill-opacity="1"><g transform="translate(304.149461, 225.168695)"><g><path d="M 51.253906 -24.371094 C 51.253906 -40.949219 38.710938 -49.191406 26.253906 -49.191406 C 13.621094 -49.191406 1.164062 -40.949219 1.164062 -24.371094 C 1.164062 -7.796875 13.621094 0.539062 26.164062 0.539062 C 36.199219 0.539062 46.144531 -4.75 49.820312 -15.324219 L 34.496094 -15.324219 C 32.4375 -13.082031 29.480469 -12.007812 26.34375 -12.007812 C 22.042969 -12.097656 17.652344 -14.335938 15.949219 -18.816406 L 50.714844 -18.816406 C 51.074219 -20.609375 51.253906 -22.402344 51.253906 -24.371094 Z M 35.84375 -29.839844 L 16.488281 -29.839844 C 17.921875 -34.585938 21.773438 -36.917969 25.984375 -36.917969 C 30.554688 -36.917969 34.496094 -34.675781 35.84375 -29.839844 Z M 35.84375 -29.839844 "/></g></g></g><g fill="#00ffff" fill-opacity="1"><g transform="translate(118.489767, 229.801764)"><g><path d="M 18.367188 -31.273438 C 18.367188 -43.1875 26.972656 -49.101562 35.574219 -49.101562 C 42.742188 -49.101562 50 -44.980469 52.058594 -36.648438 L 67.5625 -36.648438 C 65.589844 -52.777344 51.703125 -63.707031 35.574219 -63.707031 C 17.652344 -63.707031 3.136719 -49.730469 3.136719 -31.273438 C 3.136719 -12.8125 17.652344 0.894531 35.574219 0.894531 C 51.882812 0.894531 65.320312 -9.945312 67.652344 -26.34375 L 52.148438 -26.34375 C 50.179688 -17.832031 42.921875 -13.53125 35.574219 -13.53125 C 26.972656 -13.53125 18.367188 -19.445312 18.367188 -31.273438 Z M 18.367188 -31.273438 "/></g></g></g><g fill="#00ffff" fill-opacity="1"><g transform="translate(189.004189, 229.801764)"><g><path d="M 52.058594 -24.191406 C 52.058594 -41.488281 39.15625 -50.089844 26.253906 -50.089844 C 13.261719 -50.089844 0.359375 -41.488281 0.359375 -24.191406 C 0.359375 -6.988281 13.351562 1.613281 26.253906 1.613281 C 39.15625 1.613281 52.058594 -6.988281 52.058594 -24.191406 Z M 14.515625 -24.191406 C 14.515625 -32.4375 20.339844 -36.558594 26.253906 -36.558594 C 32.707031 -36.558594 37.902344 -32.4375 37.902344 -24.191406 C 37.902344 -16.039062 32.078125 -12.007812 26.253906 -12.007812 C 20.339844 -12.007812 14.515625 -16.039062 14.515625 -24.191406 Z M 14.515625 -24.191406 "/></g></g></g><g fill="#00ffff" fill-opacity="1"><g transform="translate(245.720366, 229.801764)"><g><path d="M 24.730469 -49.28125 C 8.960938 -49.28125 1.253906 -38.171875 1.253906 -24.910156 C 1.253906 -11.558594 9.230469 0.628906 24.550781 0.628906 C 29.210938 0.628906 33.960938 -0.71875 37.277344 -4.839844 L 37.277344 0 L 51.34375 0 L 51.34375 -63.171875 L 37.277344 -63.171875 L 37.277344 -44.085938 C 34.050781 -47.757812 29.480469 -49.28125 24.730469 -49.28125 Z M 26.253906 -12.902344 C 19.085938 -12.902344 15.410156 -18.726562 15.410156 -24.550781 C 15.410156 -30.464844 18.996094 -36.289062 26.253906 -36.289062 C 32.347656 -36.289062 37.277344 -31.003906 37.277344 -24.550781 C 37.277344 -18.101562 32.347656 -12.902344 26.253906 -12.902344 Z M 26.253906 -12.902344 "/></g></g></g><g fill="#00ffff" fill-opacity="1"><g transform="translate(303.332529, 229.801764)"><g><path d="M 51.253906 -24.371094 C 51.253906 -40.949219 38.710938 -49.191406 26.253906 -49.191406 C 13.621094 -49.191406 1.164062 -40.949219 1.164062 -24.371094 C 1.164062 -7.796875 13.621094 0.539062 26.164062 0.539062 C 36.199219 0.539062 46.144531 -4.75 49.820312 -15.324219 L 34.496094 -15.324219 C 32.4375 -13.082031 29.480469 -12.007812 26.34375 -12.007812 C 22.042969 -12.097656 17.652344 -14.335938 15.949219 -18.816406 L 50.714844 -18.816406 C 51.074219 -20.609375 51.253906 -22.402344 51.253906 -24.371094 Z M 35.84375 -29.839844 L 16.488281 -29.839844 C 17.921875 -34.585938 21.773438 -36.917969 25.984375 -36.917969 C 30.554688 -36.917969 34.496094 -34.675781 35.84375 -29.839844 Z M 35.84375 -29.839844 "/></g></g></g><g fill="#2cffff" fill-opacity="1"><g transform="translate(118.898232, 227.485229)"><g><path d="M 18.367188 -31.273438 C 18.367188 -43.1875 26.972656 -49.101562 35.574219 -49.101562 C 42.742188 -49.101562 50 -44.980469 52.058594 -36.648438 L 67.5625 -36.648438 C 65.589844 -52.777344 51.703125 -63.707031 35.574219 -63.707031 C 17.652344 -63.707031 3.136719 -49.730469 3.136719 -31.273438 C 3.136719 -12.8125 17.652344 0.894531 35.574219 0.894531 C 51.882812 0.894531 65.320312 -9.945312 67.652344 -26.34375 L 52.148438 -26.34375 C 50.179688 -17.832031 42.921875 -13.53125 35.574219 -13.53125 C 26.972656 -13.53125 18.367188 -19.445312 18.367188 -31.273438 Z M 18.367188 -31.273438 "/></g></g></g><g fill="#2cffff" fill-opacity="1"><g transform="translate(189.412654, 227.485229)"><g><path d="M 52.058594 -24.191406 C 52.058594 -41.488281 39.15625 -50.089844 26.253906 -50.089844 C 13.261719 -50.089844 0.359375 -41.488281 0.359375 -24.191406 C 0.359375 -6.988281 13.351562 1.613281 26.253906 1.613281 C 39.15625 1.613281 52.058594 -6.988281 52.058594 -24.191406 Z M 14.515625 -24.191406 C 14.515625 -32.4375 20.339844 -36.558594 26.253906 -36.558594 C 32.707031 -36.558594 37.902344 -32.4375 37.902344 -24.191406 C 37.902344 -16.039062 32.078125 -12.007812 26.253906 -12.007812 C 20.339844 -12.007812 14.515625 -16.039062 14.515625 -24.191406 Z M 14.515625 -24.191406 "/></g></g></g><g fill="#2cffff" fill-opacity="1"><g transform="translate(246.12883, 227.485229)"><g><path d="M 24.730469 -49.28125 C 8.960938 -49.28125 1.253906 -38.171875 1.253906 -24.910156 C 1.253906 -11.558594 9.230469 0.628906 24.550781 0.628906 C 29.210938 0.628906 33.960938 -0.71875 37.277344 -4.839844 L 37.277344 0 L 51.34375 0 L 51.34375 -63.171875 L 37.277344 -63.171875 L 37.277344 -44.085938 C 34.050781 -47.757812 29.480469 -49.28125 24.730469 -49.28125 Z M 26.253906 -12.902344 C 19.085938 -12.902344 15.410156 -18.726562 15.410156 -24.550781 C 15.410156 -30.464844 18.996094 -36.289062 26.253906 -36.289062 C 32.347656 -36.289062 37.277344 -31.003906 37.277344 -24.550781 C 37.277344 -18.101562 32.347656 -12.902344 26.253906 -12.902344 Z M 26.253906 -12.902344 "/></g></g></g><g fill="#2cffff" fill-opacity="1"><g transform="translate(303.740993, 227.485229)"><g><path d="M 51.253906 -24.371094 C 51.253906 -40.949219 38.710938 -49.191406 26.253906 -49.191406 C 13.621094 -49.191406 1.164062 -40.949219 1.164062 -24.371094 C 1.164062 -7.796875 13.621094 0.539062 26.164062 0.539062 C 36.199219 0.539062 46.144531 -4.75 49.820312 -15.324219 L 34.496094 -15.324219 C 32.4375 -13.082031 29.480469 -12.007812 26.34375 -12.007812 C 22.042969 -12.097656 17.652344 -14.335938 15.949219 -18.816406 L 50.714844 -18.816406 C 51.074219 -20.609375 51.253906 -22.402344 51.253906 -24.371094 Z M 35.84375 -29.839844 L 16.488281 -29.839844 C 17.921875 -34.585938 21.773438 -36.917969 25.984375 -36.917969 C 30.554688 -36.917969 34.496094 -34.675781 35.84375 -29.839844 Z M 35.84375 -29.839844 "/></g></g></g></svg>