<svg xmlns="http://www.w3.org/2000/svg" xmlns:xlink="http://www.w3.org/1999/xlink" width="640" zoomAndPan="magnify" viewBox="0 0 480 249.749984" height="333" preserveAspectRatio="xMidYMid meet" version="1.0"><defs><g/></defs><g fill="#ff00ff" fill-opacity="1"><g transform="translate(122.217122, 82.731183)"><g><path d="M 18.367188 -31.273438 C 18.367188 -43.1875 26.972656 -49.101562 35.574219 -49.101562 C 42.742188 -49.101562 50 -44.980469 52.058594 -36.648438 L 67.5625 -36.648438 C 65.589844 -52.777344 51.703125 -63.707031 35.574219 -63.707031 C 17.652344 -63.707031 3.136719 -49.730469 3.136719 -31.273438 C 3.136719 -12.8125 17.652344 0.894531 35.574219 0.894531 C 51.882812 0.894531 65.320312 -9.945312 67.652344 -26.34375 L 52.148438 -26.34375 C 50.179688 -17.832031 42.921875 -13.53125 35.574219 -13.53125 C 26.972656 -13.53125 18.367188 -19.445312 18.367188 -31.273438 Z M 18.367188 -31.273438 "/></g></g></g><g fill="#ff00ff" fill-opacity="1"><g transform="translate(192.731543, 82.731183)"><g><path d="M 16.398438 -43.636719 L 16.398438 -63.171875 L 2.152344 -63.171875 L 2.152344 0 L 17.113281 0 L 17.113281 -26.34375 C 17.113281 -32.167969 22.222656 -35.84375 26.433594 -35.84375 C 30.285156 -35.84375 33.871094 -33.0625 33.871094 -26.613281 L 33.871094 0 L 48.117188 0 L 48.117188 -26.703125 C 48.296875 -38.796875 44.445312 -49.015625 30.644531 -49.191406 C 25.449219 -49.191406 19.890625 -47.9375 16.398438 -43.636719 Z M 16.398438 -43.636719 "/></g></g></g><g fill="#ff00ff" fill-opacity="1"><g transform="translate(247.118148, 82.731183)"><g><path d="M 33.601562 -4.929688 L 33.601562 0 L 47.847656 0 L 47.847656 -48.476562 L 32.886719 -48.476562 L 32.886719 -22.132812 C 32.886719 -15.679688 28.496094 -12.097656 24.28125 -12.097656 C 20.429688 -12.097656 16.667969 -15.144531 16.667969 -21.863281 L 16.667969 -48.476562 L 2.417969 -48.476562 L 2.417969 -21.773438 C 2.328125 -9.585938 6.183594 0.628906 20.429688 0.628906 C 25.449219 0.628906 30.285156 -0.71875 33.601562 -4.929688 Z M 33.601562 -4.929688 "/></g></g></g><g fill="#ff00ff" fill-opacity="1"><g transform="translate(301.23596, 82.731183)"><g><path d="M 24.460938 -0.179688 C 29.300781 -0.179688 33.871094 -1.523438 37.007812 -5.195312 L 37.007812 -2.6875 C 36.558594 6.003906 30.914062 8.691406 25.714844 8.691406 C 21.324219 8.691406 17.292969 6.273438 17.292969 3.40625 L 2.507812 3.40625 C 2.507812 15.144531 14.425781 22.402344 26.433594 22.402344 C 38.710938 22.402344 51.074219 15.144531 51.074219 -2.777344 L 51.074219 -48.476562 L 37.007812 -48.476562 L 37.007812 -43.636719 C 33.78125 -47.847656 28.941406 -49.015625 24.191406 -49.015625 C 8.871094 -49.015625 1.074219 -37.722656 1.074219 -23.835938 C 1.074219 -10.484375 8.871094 -0.179688 24.460938 -0.179688 Z M 26.074219 -35.574219 C 32.078125 -35.574219 37.007812 -30.285156 37.007812 -23.835938 C 37.007812 -17.113281 31.539062 -13.621094 26.074219 -13.53125 C 20.609375 -13.53125 15.234375 -16.933594 15.234375 -23.835938 C 15.234375 -29.660156 18.816406 -35.574219 26.074219 -35.574219 Z M 26.074219 -35.574219 "/></g></g></g><g fill="#00ffff" fill-opacity="1"><g transform="translate(121.400192, 87.364251)"><g><path d="M 18.367188 -31.273438 C 18.367188 -43.1875 26.972656 -49.101562 35.574219 -49.101562 C 42.742188 -49.101562 50 -44.980469 52.058594 -36.648438 L 67.5625 -36.648438 C 65.589844 -52.777344 51.703125 -63.707031 35.574219 -63.707031 C 17.652344 -63.707031 3.136719 -49.730469 3.136719 -31.273438 C 3.136719 -12.8125 17.652344 0.894531 35.574219 0.894531 C 51.882812 0.894531 65.320312 -9.945312 67.652344 -26.34375 L 52.148438 -26.34375 C 50.179688 -17.832031 42.921875 -13.53125 35.574219 -13.53125 C 26.972656 -13.53125 18.367188 -19.445312 18.367188 -31.273438 Z M 18.367188 -31.273438 "/></g></g></g><g fill="#00ffff" fill-opacity="1"><g transform="translate(191.914614, 87.364251)"><g><path d="M 16.398438 -43.636719 L 16.398438 -63.171875 L 2.152344 -63.171875 L 2.152344 0 L 17.113281 0 L 17.113281 -26.34375 C 17.113281 -32.167969 22.222656 -35.84375 26.433594 -35.84375 C 30.285156 -35.84375 33.871094 -33.0625 33.871094 -26.613281 L 33.871094 0 L 48.117188 0 L 48.117188 -26.703125 C 48.296875 -38.796875 44.445312 -49.015625 30.644531 -49.191406 C 25.449219 -49.191406 19.890625 -47.9375 16.398438 -43.636719 Z M 16.398438 -43.636719 "/></g></g></g><g fill="#00ffff" fill-opacity="1"><g transform="translate(246.301219, 87.364251)"><g><path d="M 33.601562 -4.929688 L 33.601562 0 L 47.847656 0 L 47.847656 -48.476562 L 32.886719 -48.476562 L 32.886719 -22.132812 C 32.886719 -15.679688 28.496094 -12.097656 24.28125 -12.097656 C 20.429688 -12.097656 16.667969 -15.144531 16.667969 -21.863281 L 16.667969 -48.476562 L 2.417969 -48.476562 L 2.417969 -21.773438 C 2.328125 -9.585938 6.183594 0.628906 20.429688 0.628906 C 25.449219 0.628906 30.285156 -0.71875 33.601562 -4.929688 Z M 33.601562 -4.929688 "/></g></g></g><g fill="#00ffff" fill-opacity="1"><g transform="translate(300.419031, 87.364251)"><g><path d="M 24.460938 -0.179688 C 29.300781 -0.179688 33.871094 -1.523438 37.007812 -5.195312 L 37.007812 -2.6875 C 36.558594 6.003906 30.914062 8.691406 25.714844 8.691406 C 21.324219 8.691406 17.292969 6.273438 17.292969 3.40625 L 2.507812 3.40625 C 2.507812 15.144531 14.425781 22.402344 26.433594 22.402344 C 38.710938 22.402344 51.074219 15.144531 51.074219 -2.777344 L 51.074219 -48.476562 L 37.007812 -48.476562 L 37.007812 -43.636719 C 33.78125 -47.847656 28.941406 -49.015625 24.191406 -49.015625 C 8.871094 -49.015625 1.074219 -37.722656 1.074219 -23.835938 C 1.074219 -10.484375 8.871094 -0.179688 24.460938 -0.179688 Z M 26.074219 -35.574219 C 32.078125 -35.574219 37.007812 -30.285156 37.007812 -23.835938 C 37.007812 -17.113281 31.539062 -13.621094 26.074219 -13.53125 C 20.609375 -13.53125 15.234375 -16.933594 15.234375 -23.835938 C 15.234375 -29.660156 18.816406 -35.574219 26.074219 -35.574219 Z M 26.074219 -35.574219 "/></g></g></g><g fill="#2cffff" fill-opacity="1"><g transform="translate(121.808657, 85.047717)"><g><path d="M 18.367188 -31.273438 C 18.367188 -43.1875 26.972656 -49.101562 35.574219 -49.101562 C 42.742188 -49.101562 50 -44.980469 52.058594 -36.648438 L 67.5625 -36.648438 C 65.589844 -52.777344 51.703125 -63.707031 35.574219 -63.707031 C 17.652344 -63.707031 3.136719 -49.730469 3.136719 -31.273438 C 3.136719 -12.8125 17.652344 0.894531 35.574219 0.894531 C 51.882812 0.894531 65.320312 -9.945312 67.652344 -26.34375 L 52.148438 -26.34375 C 50.179688 -17.832031 42.921875 -13.53125 35.574219 -13.53125 C 26.972656 -13.53125 18.367188 -19.445312 18.367188 -31.273438 Z M 18.367188 -31.273438 "/></g></g></g><g fill="#2cffff" fill-opacity="1"><g transform="translate(192.323079, 85.047717)"><g><path d="M 16.398438 -43.636719 L 16.398438 -63.171875 L 2.152344 -63.171875 L 2.152344 0 L 17.113281 0 L 17.113281 -26.34375 C 17.113281 -32.167969 22.222656 -35.84375 26.433594 -35.84375 C 30.285156 -35.84375 33.871094 -33.0625 33.871094 -26.613281 L 33.871094 0 L 48.117188 0 L 48.117188 -26.703125 C 48.296875 -38.796875 44.445312 -49.015625 30.644531 -49.191406 C 25.449219 -49.191406 19.890625 -47.9375 16.398438 -43.636719 Z M 16.398438 -43.636719 "/></g></g></g><g fill="#2cffff" fill-opacity="1"><g transform="translate(246.709683, 85.047717)"><g><path d="M 33.601562 -4.929688 L 33.601562 0 L 47.847656 0 L 47.847656 -48.476562 L 32.886719 -48.476562 L 32.886719 -22.132812 C 32.886719 -15.679688 28.496094 -12.097656 24.28125 -12.097656 C 20.429688 -12.097656 16.667969 -15.144531 16.667969 -21.863281 L 16.667969 -48.476562 L 2.417969 -48.476562 L 2.417969 -21.773438 C 2.328125 -9.585938 6.183594 0.628906 20.429688 0.628906 C 25.449219 0.628906 30.285156 -0.71875 33.601562 -4.929688 Z M 33.601562 -4.929688 "/></g></g></g><g fill="#2cffff" fill-opacity="1"><g transform="translate(300.827495, 85.047717)"><g><path d="M 24.460938 -0.179688 C 29.300781 -0.179688 33.871094 -1.523438 37.007812 -5.195312 L 37.007812 -2.6875 C 36.558594 6.003906 30.914062 8.691406 25.714844 8.691406 C 21.324219 8.691406 17.292969 6.273438 17.292969 3.40625 L 2.507812 3.40625 C 2.507812 15.144531 14.425781 22.402344 26.433594 22.402344 C 38.710938 22.402344 51.074219 15.144531 51.074219 -2.777344 L 51.074219 -48.476562 L 37.007812 -48.476562 L 37.007812 -43.636719 C 33.78125 -47.847656 28.941406 -49.015625 24.191406 -49.015625 C 8.871094 -49.015625 1.074219 -37.722656 1.074219 -23.835938 C 1.074219 -10.484375 8.871094 -0.179688 24.460938 -0.179688 Z M 26.074219 -35.574219 C 32.078125 -35.574219 37.007812 -30.285156 37.007812 -23.835938 C 37.007812 -17.113281 31.539062 -13.621094 26.074219 -13.53125 C 20.609375 -13.53125 15.234375 -16.933594 15.234375 -23.835938 C 15.234375 -29.660156 18.816406 -35.574219 26.074219 -35.574219 Z M 26.074219 -35.574219 "/></g></g></g><g fill="#ff00ff" fill-opacity="1"><g transform="translate(193.141633, 153.949881)"><g><path d="M 13.261719 -62.902344 L 0.179688 -62.902344 L 0.179688 -35.125 L 13.261719 -35.125 Z M 13.261719 -62.902344 "/></g></g></g><g fill="#ff00ff" fill-opacity="1"><g transform="translate(213.211813, 153.949881)"><g><path d="M 16.308594 -43.636719 L 16.308594 -48.476562 L 2.0625 -48.476562 L 2.0625 0 L 17.023438 0 L 17.023438 -26.34375 C 17.023438 -32.527344 22.042969 -36.109375 26.253906 -36.109375 C 30.105469 -36.109375 33.78125 -33.152344 33.78125 -26.613281 L 33.78125 0 L 48.117188 0 L 48.117188 -26.703125 C 48.207031 -38.796875 44.445312 -49.015625 30.644531 -49.191406 C 25.449219 -49.191406 19.714844 -47.9375 16.308594 -43.636719 Z M 16.308594 -43.636719 "/></g></g></g><g fill="#ff00ff" fill-opacity="1"><g transform="translate(267.598417, 153.949881)"><g><path d="M 13.261719 -62.902344 L 0.179688 -62.902344 L 0.179688 -35.125 L 13.261719 -35.125 Z M 13.261719 -62.902344 "/></g></g></g><g fill="#00ffff" fill-opacity="1"><g transform="translate(192.324703, 158.582949)"><g><path d="M 13.261719 -62.902344 L 0.179688 -62.902344 L 0.179688 -35.125 L 13.261719 -35.125 Z M 13.261719 -62.902344 "/></g></g></g><g fill="#00ffff" fill-opacity="1"><g transform="translate(212.394883, 158.582949)"><g><path d="M 16.308594 -43.636719 L 16.308594 -48.476562 L 2.0625 -48.476562 L 2.0625 0 L 17.023438 0 L 17.023438 -26.34375 C 17.023438 -32.527344 22.042969 -36.109375 26.253906 -36.109375 C 30.105469 -36.109375 33.78125 -33.152344 33.78125 -26.613281 L 33.78125 0 L 48.117188 0 L 48.117188 -26.703125 C 48.207031 -38.796875 44.445312 -49.015625 30.644531 -49.191406 C 25.449219 -49.191406 19.714844 -47.9375 16.308594 -43.636719 Z M 16.308594 -43.636719 "/></g></g></g><g fill="#00ffff" fill-opacity="1"><g transform="translate(266.781488, 158.582949)"><g><path d="M 13.261719 -62.902344 L 0.179688 -62.902344 L 0.179688 -35.125 L 13.261719 -35.125 Z M 13.261719 -62.902344 "/></g></g></g><g fill="#2cffff" fill-opacity="1"><g transform="translate(192.733168, 156.266415)"><g><path d="M 13.261719 -62.902344 L 0.179688 -62.902344 L 0.179688 -35.125 L 13.261719 -35.125 Z M 13.261719 -62.902344 "/></g></g></g><g fill="#2cffff" fill-opacity="1"><g transform="translate(212.803348, 156.266415)"><g><path d="M 16.308594 -43.636719 L 16.308594 -48.476562 L 2.0625 -48.476562 L 2.0625 0 L 17.023438 0 L 17.023438 -26.34375 C 17.023438 -32.527344 22.042969 -36.109375 26.253906 -36.109375 C 30.105469 -36.109375 33.78125 -33.152344 33.78125 -26.613281 L 33.78125 0 L 48.117188 0 L 48.117188 -26.703125 C 48.207031 -38.796875 44.445312 -49.015625 30.644531 -49.191406 C 25.449219 -49.191406 19.714844 -47.9375 16.308594 -43.636719 Z M 16.308594 -43.636719 "/></g></g></g><g fill="#2cffff" fill-opacity="1"><g transform="translate(267.189952, 156.266415)"><g><path d="M 13.261719 -62.902344 L 0.179688 -62.902344 L 0.179688 -35.125 L 13.261719 -35.125 Z M 13.261719 -62.902344 "/></g></g></g><g fill="#ff00ff" fill-opacity="1"><g transform="translate(119.313629, 225.168578)"><g><path d="M 18.367188 -31.273438 C 18.367188 -43.1875 26.972656 -49.101562 35.574219 -49.101562 C 42.742188 -49.101562 50 -44.980469 52.058594 -36.648438 L 67.5625 -36.648438 C 65.589844 -52.777344 51.703125 -63.707031 35.574219 -63.707031 C 17.652344 -63.707031 3.136719 -49.730469 3.136719 -31.273438 C 3.136719 -12.8125 17.652344 0.894531 35.574219 0.894531 C 51.882812 0.894531 65.320312 -9.945312 67.652344 -26.34375 L 52.148438 -26.34375 C 50.179688 -17.832031 42.921875 -13.53125 35.574219 -13.53125 C 26.972656 -13.53125 18.367188 -19.445312 18.367188 -31.273438 Z M 18.367188 -31.273438 "/></g></g></g><g fill="#ff00ff" fill-opacity="1"><g transform="translate(189.828051, 225.168578)"><g><path d="M 52.058594 -24.191406 C 52.058594 -41.488281 39.15625 -50.089844 26.253906 -50.089844 C 13.261719 -50.089844 0.359375 -41.488281 0.359375 -24.191406 C 0.359375 -6.988281 13.351562 1.613281 26.253906 1.613281 C 39.15625 1.613281 52.058594 -6.988281 52.058594 -24.191406 Z M 14.515625 -24.191406 C 14.515625 -32.4375 20.339844 -36.558594 26.253906 -36.558594 C 32.707031 -36.558594 37.902344 -32.4375 37.902344 -24.191406 C 37.902344 -16.039062 32.078125 -12.007812 26.253906 -12.007812 C 20.339844 -12.007812 14.515625 -16.039062 14.515625 -24.191406 Z M 14.515625 -24.191406 "/></g></g></g><g fill="#ff00ff" fill-opacity="1"><g transform="translate(246.544228, 225.168578)"><g><path d="M 24.730469 -49.28125 C 8.960938 -49.28125 1.253906 -38.171875 1.253906 -24.910156 C 1.253906 -11.558594 9.230469 0.628906 24.550781 0.628906 C 29.210938 0.628906 33.960938 -0.71875 37.277344 -4.839844 L 37.277344 0 L 51.34375 0 L 51.34375 -63.171875 L 37.277344 -63.171875 L 37.277344 -44.085938 C 34.050781 -47.757812 29.480469 -49.28125 24.730469 -49.28125 Z M 26.253906 -12.902344 C 19.085938 -12.902344 15.410156 -18.726562 15.410156 -24.550781 C 15.410156 -30.464844 18.996094 -36.289062 26.253906 -36.289062 C 32.347656 -36.289062 37.277344 -31.003906 37.277344 -24.550781 C 37.277344 -18.101562 32.347656 -12.902344 26.253906 -12.902344 Z M 26.253906 -12.902344 "/></g></g></g><g fill="#ff00ff" fill-opacity="1"><g transform="translate(304.156391, 225.168578)"><g><path d="M 51.253906 -24.371094 C 51.253906 -40.949219 38.710938 -49.191406 26.253906 -49.191406 C 13.621094 -49.191406 1.164062 -40.949219 1.164062 -24.371094 C 1.164062 -7.796875 13.621094 0.539062 26.164062 0.539062 C 36.199219 0.539062 46.144531 -4.75 49.820312 -15.324219 L 34.496094 -15.324219 C 32.4375 -13.082031 29.480469 -12.007812 26.34375 -12.007812 C 22.042969 -12.097656 17.652344 -14.335938 15.949219 -18.816406 L 50.714844 -18.816406 C 51.074219 -20.609375 51.253906 -22.402344 51.253906 -24.371094 Z M 35.84375 -29.839844 L 16.488281 -29.839844 C 17.921875 -34.585938 21.773438 -36.917969 25.984375 -36.917969 C 30.554688 -36.917969 34.496094 -34.675781 35.84375 -29.839844 Z M 35.84375 -29.839844 "/></g></g></g><g fill="#00ffff" fill-opacity="1"><g transform="translate(118.4967, 229.801647)"><g><path d="M 18.367188 -31.273438 C 18.367188 -43.1875 26.972656 -49.101562 35.574219 -49.101562 C 42.742188 -49.101562 50 -44.980469 52.058594 -36.648438 L 67.5625 -36.648438 C 65.589844 -52.777344 51.703125 -63.707031 35.574219 -63.707031 C 17.652344 -63.707031 3.136719 -49.730469 3.136719 -31.273438 C 3.136719 -12.8125 17.652344 0.894531 35.574219 0.894531 C 51.882812 0.894531 65.320312 -9.945312 67.652344 -26.34375 L 52.148438 -26.34375 C 50.179688 -17.832031 42.921875 -13.53125 35.574219 -13.53125 C 26.972656 -13.53125 18.367188 -19.445312 18.367188 -31.273438 Z M 18.367188 -31.273438 "/></g></g></g><g fill="#00ffff" fill-opacity="1"><g transform="translate(189.011122, 229.801647)"><g><path d="M 52.058594 -24.191406 C 52.058594 -41.488281 39.15625 -50.089844 26.253906 -50.089844 C 13.261719 -50.089844 0.359375 -41.488281 0.359375 -24.191406 C 0.359375 -6.988281 13.351562 1.613281 26.253906 1.613281 C 39.15625 1.613281 52.058594 -6.988281 52.058594 -24.191406 Z M 14.515625 -24.191406 C 14.515625 -32.4375 20.339844 -36.558594 26.253906 -36.558594 C 32.707031 -36.558594 37.902344 -32.4375 37.902344 -24.191406 C 37.902344 -16.039062 32.078125 -12.007812 26.253906 -12.007812 C 20.339844 -12.007812 14.515625 -16.039062 14.515625 -24.191406 Z M 14.515625 -24.191406 "/></g></g></g><g fill="#00ffff" fill-opacity="1"><g transform="translate(245.727298, 229.801647)"><g><path d="M 24.730469 -49.28125 C 8.960938 -49.28125 1.253906 -38.171875 1.253906 -24.910156 C 1.253906 -11.558594 9.230469 0.628906 24.550781 0.628906 C 29.210938 0.628906 33.960938 -0.71875 37.277344 -4.839844 L 37.277344 0 L 51.34375 0 L 51.34375 -63.171875 L 37.277344 -63.171875 L 37.277344 -44.085938 C 34.050781 -47.757812 29.480469 -49.28125 24.730469 -49.28125 Z M 26.253906 -12.902344 C 19.085938 -12.902344 15.410156 -18.726562 15.410156 -24.550781 C 15.410156 -30.464844 18.996094 -36.289062 26.253906 -36.289062 C 32.347656 -36.289062 37.277344 -31.003906 37.277344 -24.550781 C 37.277344 -18.101562 32.347656 -12.902344 26.253906 -12.902344 Z M 26.253906 -12.902344 "/></g></g></g><g fill="#00ffff" fill-opacity="1"><g transform="translate(303.339461, 229.801647)"><g><path d="M 51.253906 -24.371094 C 51.253906 -40.949219 38.710938 -49.191406 26.253906 -49.191406 C 13.621094 -49.191406 1.164062 -40.949219 1.164062 -24.371094 C 1.164062 -7.796875 13.621094 0.539062 26.164062 0.539062 C 36.199219 0.539062 46.144531 -4.75 49.820312 -15.324219 L 34.496094 -15.324219 C 32.4375 -13.082031 29.480469 -12.007812 26.34375 -12.007812 C 22.042969 -12.097656 17.652344 -14.335938 15.949219 -18.816406 L 50.714844 -18.816406 C 51.074219 -20.609375 51.253906 -22.402344 51.253906 -24.371094 Z M 35.84375 -29.839844 L 16.488281 -29.839844 C 17.921875 -34.585938 21.773438 -36.917969 25.984375 -36.917969 C 30.554688 -36.917969 34.496094 -34.675781 35.84375 -29.839844 Z M 35.84375 -29.839844 "/></g></g></g><g fill="#2cffff" fill-opacity="1"><g transform="translate(118.905165, 227.485112)"><g><path d="M 18.367188 -31.273438 C 18.367188 -43.1875 26.972656 -49.101562 35.574219 -49.101562 C 42.742188 -49.101562 50 -44.980469 52.058594 -36.648438 L 67.5625 -36.648438 C 65.589844 -52.777344 51.703125 -63.707031 35.574219 -63.707031 C 17.652344 -63.707031 3.136719 -49.730469 3.136719 -31.273438 C 3.136719 -12.8125 17.652344 0.894531 35.574219 0.894531 C 51.882812 0.894531 65.320312 -9.945312 67.652344 -26.34375 L 52.148438 -26.34375 C 50.179688 -17.832031 42.921875 -13.53125 35.574219 -13.53125 C 26.972656 -13.53125 18.367188 -19.445312 18.367188 -31.273438 Z M 18.367188 -31.273438 "/></g></g></g><g fill="#2cffff" fill-opacity="1"><g transform="translate(189.419586, 227.485112)"><g><path d="M 52.058594 -24.191406 C 52.058594 -41.488281 39.15625 -50.089844 26.253906 -50.089844 C 13.261719 -50.089844 0.359375 -41.488281 0.359375 -24.191406 C 0.359375 -6.988281 13.351562 1.613281 26.253906 1.613281 C 39.15625 1.613281 52.058594 -6.988281 52.058594 -24.191406 Z M 14.515625 -24.191406 C 14.515625 -32.4375 20.339844 -36.558594 26.253906 -36.558594 C 32.707031 -36.558594 37.902344 -32.4375 37.902344 -24.191406 C 37.902344 -16.039062 32.078125 -12.007812 26.253906 -12.007812 C 20.339844 -12.007812 14.515625 -16.039062 14.515625 -24.191406 Z M 14.515625 -24.191406 "/></g></g></g><g fill="#2cffff" fill-opacity="1"><g transform="translate(246.135763, 227.485112)"><g><path d="M 24.730469 -49.28125 C 8.960938 -49.28125 1.253906 -38.171875 1.253906 -24.910156 C 1.253906 -11.558594 9.230469 0.628906 24.550781 0.628906 C 29.210938 0.628906 33.960938 -0.71875 37.277344 -4.839844 L 37.277344 0 L 51.34375 0 L 51.34375 -63.171875 L 37.277344 -63.171875 L 37.277344 -44.085938 C 34.050781 -47.757812 29.480469 -49.28125 24.730469 -49.28125 Z M 26.253906 -12.902344 C 19.085938 -12.902344 15.410156 -18.726562 15.410156 -24.550781 C 15.410156 -30.464844 18.996094 -36.289062 26.253906 -36.289062 C 32.347656 -36.289062 37.277344 -31.003906 37.277344 -24.550781 C 37.277344 -18.101562 32.347656 -12.902344 26.253906 -12.902344 Z M 26.253906 -12.902344 "/></g></g></g><g fill="#2cffff" fill-opacity="1"><g transform="translate(303.747926, 227.485112)"><g><path d="M 51.253906 -24.371094 C 51.253906 -40.949219 38.710938 -49.191406 26.253906 -49.191406 C 13.621094 -49.191406 1.164062 -40.949219 1.164062 -24.371094 C 1.164062 -7.796875 13.621094 0.539062 26.164062 0.539062 C 36.199219 0.539062 46.144531 -4.75 49.820312 -15.324219 L 34.496094 -15.324219 C 32.4375 -13.082031 29.480469 -12.007812 26.34375 -12.007812 C 22.042969 -12.097656 17.652344 -14.335938 15.949219 -18.816406 L 50.714844 -18.816406 C 51.074219 -20.609375 51.253906 -22.402344 51.253906 -24.371094 Z M 35.84375 -29.839844 L 16.488281 -29.839844 C 17.921875 -34.585938 21.773438 -36.917969 25.984375 -36.917969 C 30.554688 -36.917969 34.496094 -34.675781 35.84375 -29.839844 Z M 35.84375 -29.839844 "/></g></g></g></svg>